<?xml version="1.0" encoding="UTF-8"?>
<!DOCTYPE svg PUBLIC "-//W3C//DTD SVG 1.1//EN" "http://www.w3.org/Graphics/SVG/1.1/DTD/svg11.dtd">
<svg xmlns="http://www.w3.org/2000/svg" version="1.1" width="388px" height="301px" style="shape-rendering:geometricPrecision; text-rendering:geometricPrecision; image-rendering:optimizeQuality; fill-rule:evenodd; clip-rule:evenodd" xmlns:xlink="http://www.w3.org/1999/xlink">
<g><path style="opacity:0.997" fill="#f2f6f7" d="M 321.5,82.5 C 319.648,81.9111 317.815,81.2444 316,80.5C 315.667,80.8333 315.333,81.1667 315,81.5C 315.152,84.447 315.319,87.447 315.5,90.5C 306.145,73.7979 294.145,59.1312 279.5,46.5C 251.16,23.838 218.826,13.5047 182.5,15.5C 177.044,15.5182 171.711,16.1849 166.5,17.5C 158.735,19.1817 151.068,21.1817 143.5,23.5C 143.886,20.7383 145.219,19.7383 147.5,20.5C 150.202,18.6534 153.202,17.4867 156.5,17C 156.167,16.6667 155.833,16.3333 155.5,16C 157.283,14.9335 157.783,13.4335 157,11.5C 154.623,14.577 151.623,15.2437 148,13.5C 145.361,14.9944 142.528,15.6611 139.5,15.5C 183.671,-0.82778 226.338,2.67222 267.5,26C 290.472,40.1371 308.472,58.9704 321.5,82.5 Z"/></g>
<g><path style="opacity:1" fill="#203140" d="M 182.5,15.5 C 186.182,15.3347 189.848,15.5014 193.5,16C 189.148,16.4189 188.815,17.0855 192.5,18C 193.833,19 193.833,20 192.5,21C 193.579,21.956 194.745,22.7894 196,23.5C 197.473,21.9929 199.307,21.3262 201.5,21.5C 204.249,21.977 206.749,22.3103 209,22.5C 210.5,22 212,21.5 213.5,21C 212.112,20.1107 212.278,19.6107 214,19.5C 217.286,19.9962 219.286,21.6629 220,24.5C 217.557,22.3369 215.057,22.1702 212.5,24C 214.167,24.3333 215.833,24.6667 217.5,25C 216.5,25.5 215.5,26 214.5,26.5C 211.242,25.5827 207.909,25.2493 204.5,25.5C 187.199,24.4351 170.199,26.1018 153.5,30.5C 148.356,30.6035 147.69,29.4368 151.5,27C 151.167,26.6667 150.833,26.3333 150.5,26C 152.134,25.5065 153.801,25.3398 155.5,25.5C 155.5,24.5 155.5,23.5 155.5,22.5C 157.666,22.4211 159.666,21.7545 161.5,20.5C 164.447,21.8554 166.114,20.8554 166.5,17.5C 171.711,16.1849 177.044,15.5182 182.5,15.5 Z"/></g>
<g><path style="opacity:0.995" fill="#f2f6f6" d="M 143.5,23.5 C 129.079,28.8728 116.079,36.5395 104.5,46.5C 93.4224,55.5754 83.7558,65.9088 75.5,77.5C 75.4606,76.4168 75.1272,75.4168 74.5,74.5C 75.2624,74.0894 76.2624,73.9227 77.5,74C 77.1667,73.6667 76.8333,73.3333 76.5,73C 79.0443,71.2252 79.0443,69.3918 76.5,67.5C 76.8333,66.8333 77.1667,66.1667 77.5,65.5C 75.9974,64.9478 74.3307,64.9478 72.5,65.5C 89.7225,41.9389 112.056,25.2722 139.5,15.5C 142.528,15.6611 145.361,14.9944 148,13.5C 151.623,15.2437 154.623,14.577 157,11.5C 157.783,13.4335 157.283,14.9335 155.5,16C 155.833,16.3333 156.167,16.6667 156.5,17C 153.202,17.4867 150.202,18.6534 147.5,20.5C 145.219,19.7383 143.886,20.7383 143.5,23.5 Z"/></g>
<g><path style="opacity:1" fill="#263947" d="M 182.5,15.5 C 218.826,13.5047 251.16,23.838 279.5,46.5C 276.824,47.0081 274.157,47.1747 271.5,47C 271.406,45.5778 271.072,44.0778 270.5,42.5C 268.333,41.0458 266.333,41.2125 264.5,43C 266.83,44.4875 267.164,46.3209 265.5,48.5C 254.936,41.5516 243.603,36.2183 231.5,32.5C 222.764,29.0663 213.764,26.7329 204.5,25.5C 207.909,25.2493 211.242,25.5827 214.5,26.5C 215.5,26 216.5,25.5 217.5,25C 215.833,24.6667 214.167,24.3333 212.5,24C 215.057,22.1702 217.557,22.3369 220,24.5C 219.286,21.6629 217.286,19.9962 214,19.5C 212.278,19.6107 212.112,20.1107 213.5,21C 212,21.5 210.5,22 209,22.5C 206.749,22.3103 204.249,21.977 201.5,21.5C 199.307,21.3262 197.473,21.9929 196,23.5C 194.745,22.7894 193.579,21.956 192.5,21C 193.833,20 193.833,19 192.5,18C 188.815,17.0855 189.148,16.4189 193.5,16C 189.848,15.5014 186.182,15.3347 182.5,15.5 Z"/></g>
<g><path style="opacity:1" fill="#23333e" d="M 166.5,17.5 C 166.114,20.8554 164.447,21.8554 161.5,20.5C 159.666,21.7545 157.666,22.4211 155.5,22.5C 155.5,23.5 155.5,24.5 155.5,25.5C 153.801,25.3398 152.134,25.5065 150.5,26C 150.833,26.3333 151.167,26.6667 151.5,27C 147.69,29.4368 148.356,30.6035 153.5,30.5C 140.527,35.4868 128.194,41.8202 116.5,49.5C 116.297,47.6096 116.963,46.1096 118.5,45C 117.476,43.6329 117.976,42.7995 120,42.5C 120.772,42.6448 121.439,42.9781 122,43.5C 122.309,42.2341 122.809,41.0674 123.5,40C 121.109,39.3086 121.109,38.3086 123.5,37C 123.167,36.8333 122.833,36.6667 122.5,36.5C 118.628,38.9354 114.628,41.1021 110.5,43C 109.853,44.6095 109.02,46.1095 108,47.5C 106.989,46.6634 105.822,46.33 104.5,46.5C 116.079,36.5395 129.079,28.8728 143.5,23.5C 151.068,21.1817 158.735,19.1817 166.5,17.5 Z"/></g>
<g><path style="opacity:1" fill="#eef8f8" d="M 204.5,25.5 C 213.764,26.7329 222.764,29.0663 231.5,32.5C 230.5,32.5 229.5,32.5 228.5,32.5C 228.5,33.5 228.5,34.5 228.5,35.5C 223.228,34.1317 217.894,32.9651 212.5,32C 205.654,31.1794 198.987,31.346 192.5,32.5C 192.167,32.5 191.833,32.5 191.5,32.5C 178.715,32.4615 166.381,34.4615 154.5,38.5C 127.342,47.0002 106.342,63.3336 91.5,87.5C 82.6311,101.264 76.6311,116.264 73.5,132.5C 72.962,134.117 72.6287,135.784 72.5,137.5C 70.9925,142.413 70.3258,147.579 70.5,153C 71.0319,160.173 71.1985,167.34 71,174.5C 70.6667,175.167 70.3333,175.833 70,176.5C 69.5831,175.244 68.7498,174.577 67.5,174.5C 63.8757,158.613 63.5424,142.613 66.5,126.5C 74.3368,95.1747 91.0034,69.508 116.5,49.5C 128.194,41.8202 140.527,35.4868 153.5,30.5C 170.199,26.1018 187.199,24.4351 204.5,25.5 Z"/></g>
<g><path style="opacity:1" fill="#37bfce" d="M 191.5,32.5 C 191.5,40.5 191.5,48.5 191.5,56.5C 185.841,61.1205 180.174,65.7871 174.5,70.5C 173.494,70.0623 173.494,69.3957 174.5,68.5C 177.32,67.5353 178.653,65.5353 178.5,62.5C 183.644,61.1884 183.811,59.1884 179,56.5C 177.469,59.7737 175.136,60.7737 172,59.5C 171.411,61.8633 169.911,62.8633 167.5,62.5C 167.242,59.5109 167.242,56.3442 167.5,53C 166.552,52.5172 165.552,52.3505 164.5,52.5C 164.5,50.5 164.5,48.5 164.5,46.5C 165.833,46.5 167.167,46.5 168.5,46.5C 168.778,44.6536 168.111,43.3202 166.5,42.5C 162.61,42.5849 158.61,42.7516 154.5,43C 151.812,43.8563 150.146,45.6896 149.5,48.5C 147.815,47.0473 146.149,45.714 144.5,44.5C 147.928,42.6873 151.261,40.6873 154.5,38.5C 166.381,34.4615 178.715,32.4615 191.5,32.5 Z"/></g>
<g><path style="opacity:1" fill="#e9a951" d="M 206.5,33.5 C 212.513,34.1685 218.513,35.0018 224.5,36C 226.32,36.2004 227.653,37.0337 228.5,38.5C 224.176,38.0728 219.842,37.7395 215.5,37.5C 216.677,50.4949 216.677,63.4949 215.5,76.5C 216.552,76.6495 217.552,76.4828 218.5,76C 219.998,73.3363 221.998,71.1696 224.5,69.5C 223.194,71.8162 221.861,74.1495 220.5,76.5C 216.646,80.87 213.979,80.2033 212.5,74.5C 214.686,64.0202 215.02,53.5202 213.5,43C 211.892,42.342 210.725,42.842 210,44.5C 210.265,52.4882 210.265,60.4882 210,68.5C 207.827,71.0673 205.994,70.734 204.5,67.5C 205.583,67.5394 206.583,67.8728 207.5,68.5C 208.524,61.1825 208.524,53.8492 207.5,46.5C 207.833,44.1667 208.167,41.8333 208.5,39.5C 209.72,39.1131 210.387,38.2798 210.5,37C 209.653,35.2294 208.32,34.0627 206.5,33.5 Z"/></g>
<g><path style="opacity:1" fill="#f4941c" d="M 228.5,38.5 C 237.838,40.6709 246.171,44.6709 253.5,50.5C 251.266,49.5531 248.932,48.8864 246.5,48.5C 245.5,48.8333 244.5,49.1667 243.5,49.5C 241.575,52.1172 239.742,54.7838 238,57.5C 237.683,55.6992 237.016,55.3659 236,56.5C 235.809,58.7078 235.309,60.7078 234.5,62.5C 234.5,61.1667 234.5,59.8333 234.5,58.5C 234.5,55.8333 234.5,53.1667 234.5,50.5C 233.325,50.281 232.325,50.6143 231.5,51.5C 229.151,57.5574 226.817,63.5574 224.5,69.5C 221.998,71.1696 219.998,73.3363 218.5,76C 217.552,76.4828 216.552,76.6495 215.5,76.5C 216.677,63.4949 216.677,50.4949 215.5,37.5C 219.842,37.7395 224.176,38.0728 228.5,38.5 Z"/></g>
<g><path style="opacity:1" fill="#f89c21" d="M 192.5,32.5 C 197.363,32.1805 202.03,32.5139 206.5,33.5C 208.32,34.0627 209.653,35.2294 210.5,37C 210.387,38.2798 209.72,39.1131 208.5,39.5C 208.167,41.8333 207.833,44.1667 207.5,46.5C 208.524,53.8492 208.524,61.1825 207.5,68.5C 206.583,67.8728 205.583,67.5394 204.5,67.5C 192.887,58.8562 188.887,47.1896 192.5,32.5 Z"/></g>
<g><path style="opacity:1" fill="#273645" d="M 279.5,46.5 C 294.145,59.1312 306.145,73.7979 315.5,90.5C 322.81,105.687 327.143,121.687 328.5,138.5C 327.691,136.708 327.191,134.708 327,132.5C 326.363,130.697 325.197,129.364 323.5,128.5C 323.833,127.833 324.167,127.167 324.5,126.5C 323.242,127.016 322.242,126.35 321.5,124.5C 322.094,133.582 321.428,142.582 319.5,151.5C 319.532,155.552 319.865,159.552 320.5,163.5C 320.154,164.696 319.654,164.696 319,163.5C 318.768,164.737 318.268,165.737 317.5,166.5C 319.277,152.572 318.611,138.905 315.5,125.5C 314.621,118.391 312.621,111.724 309.5,105.5C 306.194,96.8851 301.861,88.8851 296.5,81.5C 287.908,68.9069 277.575,57.9069 265.5,48.5C 267.164,46.3209 266.83,44.4875 264.5,43C 266.333,41.2125 268.333,41.0458 270.5,42.5C 271.072,44.0778 271.406,45.5778 271.5,47C 274.157,47.1747 276.824,47.0081 279.5,46.5 Z"/></g>
<g><path style="opacity:1" fill="#e5fcfb" d="M 172.5,44.5 C 174.963,46.4611 177.297,48.6278 179.5,51C 176.722,52.1119 174.555,53.9453 173,56.5C 171.337,54.0833 169.171,52.25 166.5,51C 169.386,49.6155 171.386,47.4488 172.5,44.5 Z"/></g>
<g><path style="opacity:1" fill="#1d2c38" d="M 116.5,49.5 C 91.0034,69.508 74.3368,95.1747 66.5,126.5C 65.7724,123.921 65.2724,121.254 65,118.5C 62.7658,117.295 61.0992,117.961 60,120.5C 59.6667,123.167 59.3333,125.833 59,128.5C 58.6667,127.5 58.3333,126.5 58,125.5C 57.7206,128.457 56.8873,131.123 55.5,133.5C 58.0082,113.306 64.6749,94.6393 75.5,77.5C 83.7558,65.9088 93.4224,55.5754 104.5,46.5C 105.822,46.33 106.989,46.6634 108,47.5C 109.02,46.1095 109.853,44.6095 110.5,43C 114.628,41.1021 118.628,38.9354 122.5,36.5C 122.833,36.6667 123.167,36.8333 123.5,37C 121.109,38.3086 121.109,39.3086 123.5,40C 122.809,41.0674 122.309,42.2341 122,43.5C 121.439,42.9781 120.772,42.6448 120,42.5C 117.976,42.7995 117.476,43.6329 118.5,45C 116.963,46.1096 116.297,47.6096 116.5,49.5 Z"/></g>
<g><path style="opacity:1" fill="#f28612" d="M 253.5,50.5 C 258.866,53.021 263.866,56.1877 268.5,60C 276.1,67.0947 283.1,74.5947 289.5,82.5C 284.376,83.8286 278.876,84.4952 273,84.5C 267.5,84.1667 262,83.8333 256.5,83.5C 260.05,79.7865 264.384,77.6198 269.5,77C 270.647,74.9154 269.98,73.4154 267.5,72.5C 262.587,76.9118 257.254,80.7452 251.5,84C 250.207,84.49 248.873,84.6567 247.5,84.5C 245.597,77.024 248.097,71.6906 255,68.5C 255.092,62.19 252.592,61.0233 247.5,65C 246.614,66.6147 245.614,68.1147 244.5,69.5C 244.5,69.8333 244.5,70.1667 244.5,70.5C 240.773,72.2524 236.773,72.919 232.5,72.5C 232.155,68.8849 232.822,65.5516 234.5,62.5C 235.309,60.7078 235.809,58.7078 236,56.5C 237.016,55.3659 237.683,55.6992 238,57.5C 239.742,54.7838 241.575,52.1172 243.5,49.5C 244.5,49.1667 245.5,48.8333 246.5,48.5C 248.932,48.8864 251.266,49.5531 253.5,50.5 Z"/></g>
<g><path style="opacity:1" fill="#24b5c7" d="M 174.5,68.5 C 171.76,71.3692 169.426,71.0359 167.5,67.5C 166.583,68.1272 165.583,68.4606 164.5,68.5C 165.598,67.603 165.598,66.7697 164.5,66C 160.938,65.2611 157.772,63.7611 155,61.5C 153.56,57.4222 152.06,53.4222 150.5,49.5C 148.45,53.3094 146.784,57.3094 145.5,61.5C 141.227,63.4844 136.893,65.3178 132.5,67C 133.056,67.3826 133.389,67.8826 133.5,68.5C 132.355,69.7927 132.689,70.9593 134.5,72C 134,72.1667 133.5,72.3333 133,72.5C 129.824,70.1282 128.991,67.1282 130.5,63.5C 137.167,61.5 137.167,59.5 130.5,57.5C 129.885,55.8839 128.885,54.5505 127.5,53.5C 130.547,51.0031 134.381,48.6697 139,46.5C 139.456,47.7441 138.956,48.5774 137.5,49C 138.905,50.2692 140.571,50.7692 142.5,50.5C 142.025,47.9179 142.692,45.9179 144.5,44.5C 146.149,45.714 147.815,47.0473 149.5,48.5C 150.146,45.6896 151.812,43.8563 154.5,43C 158.61,42.7516 162.61,42.5849 166.5,42.5C 168.111,43.3202 168.778,44.6536 168.5,46.5C 167.167,46.5 165.833,46.5 164.5,46.5C 164.5,48.5 164.5,50.5 164.5,52.5C 165.552,52.3505 166.552,52.5172 167.5,53C 167.242,56.3442 167.242,59.5109 167.5,62.5C 169.911,62.8633 171.411,61.8633 172,59.5C 175.136,60.7737 177.469,59.7737 179,56.5C 183.811,59.1884 183.644,61.1884 178.5,62.5C 178.653,65.5353 177.32,67.5353 174.5,68.5 Z"/></g>
<g><path style="opacity:1" fill="#e9fbfb" d="M 164.5,68.5 C 161.323,69.4473 158.323,70.7807 155.5,72.5C 153.719,76.3953 152.219,80.3953 151,84.5C 149.461,80.2987 147.628,76.2987 145.5,72.5C 141.579,70.9706 137.579,69.6373 133.5,68.5C 133.389,67.8826 133.056,67.3826 132.5,67C 136.893,65.3178 141.227,63.4844 145.5,61.5C 146.784,57.3094 148.45,53.3094 150.5,49.5C 152.06,53.4222 153.56,57.4222 155,61.5C 157.772,63.7611 160.938,65.2611 164.5,66C 165.598,66.7697 165.598,67.603 164.5,68.5 Z"/></g>
<g><path style="opacity:1" fill="#d58f50" d="M 234.5,58.5 C 234.5,59.8333 234.5,61.1667 234.5,62.5C 232.822,65.5516 232.155,68.8849 232.5,72.5C 236.773,72.919 240.773,72.2524 244.5,70.5C 243.71,71.7942 242.71,72.9609 241.5,74C 237.848,74.4986 234.182,74.6653 230.5,74.5C 229.833,74.5 229.167,74.5 228.5,74.5C 229.98,68.8907 231.98,63.5574 234.5,58.5 Z"/></g>
<g><path style="opacity:0.996" fill="#eff2f2" d="M 75.5,77.5 C 64.6749,94.6393 58.0082,113.306 55.5,133.5C 54.612,136.054 54.2786,138.721 54.5,141.5C 53.6717,147.987 53.1717,154.654 53,161.5C 51.1706,163.156 49.8372,165.156 49,167.5C 42.9242,168.476 36.7576,168.81 30.5,168.5C 18.268,164.769 10.1013,156.769 6,144.5C 4.47492,141.28 3.80825,137.947 4,134.5C 4.5,134 5,133.5 5.5,133C 15.1667,131 24.8333,131 34.5,133C 38.4508,133.536 41.9508,135.036 45,137.5C 45.1909,135.292 45.6909,133.292 46.5,131.5C 47.7286,125.669 48.7286,119.669 49.5,113.5C 53.9669,95.9017 61.6336,79.9017 72.5,65.5C 74.3307,64.9478 75.9974,64.9478 77.5,65.5C 77.1667,66.1667 76.8333,66.8333 76.5,67.5C 79.0443,69.3918 79.0443,71.2252 76.5,73C 76.8333,73.3333 77.1667,73.6667 77.5,74C 76.2624,73.9227 75.2624,74.0894 74.5,74.5C 75.1272,75.4168 75.4606,76.4168 75.5,77.5 Z"/></g>
<g><path style="opacity:1" fill="#eff8f8" d="M 191.5,56.5 C 192.947,60.4476 195.613,63.2809 199.5,65C 201.749,66.7455 203.416,68.9121 204.5,71.5C 206.729,72.5771 209.063,73.2437 211.5,73.5C 210.519,79.6923 213.186,82.359 219.5,81.5C 220.043,81.56 220.376,81.8933 220.5,82.5C 217.599,84.3354 216.933,86.6687 218.5,89.5C 209.24,81.578 200.24,73.2446 191.5,64.5C 176.479,78.8543 161.812,93.521 147.5,108.5C 140.5,115.167 133.5,121.833 126.5,128.5C 127.803,124.618 128.47,120.618 128.5,116.5C 134.441,115.525 138.441,112.192 140.5,106.5C 141.122,104.878 142.122,103.545 143.5,102.5C 154.142,92.1906 164.475,81.5239 174.5,70.5C 180.174,65.7871 185.841,61.1205 191.5,56.5 Z"/></g>
<g><path style="opacity:1" fill="#f7f6ed" d="M 192.5,32.5 C 198.987,31.346 205.654,31.1794 212.5,32C 217.894,32.9651 223.228,34.1317 228.5,35.5C 228.5,34.5 228.5,33.5 228.5,32.5C 229.5,32.5 230.5,32.5 231.5,32.5C 243.603,36.2183 254.936,41.5516 265.5,48.5C 277.575,57.9069 287.908,68.9069 296.5,81.5C 294.651,83.0125 292.651,84.3458 290.5,85.5C 290.737,84.209 290.404,83.209 289.5,82.5C 283.1,74.5947 276.1,67.0947 268.5,60C 263.866,56.1877 258.866,53.021 253.5,50.5C 246.171,44.6709 237.838,40.6709 228.5,38.5C 227.653,37.0337 226.32,36.2004 224.5,36C 218.513,35.0018 212.513,34.1685 206.5,33.5C 202.03,32.5139 197.363,32.1805 192.5,32.5 Z"/></g>
<g><path style="opacity:1" fill="#22abb7" d="M 154.5,38.5 C 151.261,40.6873 147.928,42.6873 144.5,44.5C 142.692,45.9179 142.025,47.9179 142.5,50.5C 140.571,50.7692 138.905,50.2692 137.5,49C 138.956,48.5774 139.456,47.7441 139,46.5C 134.381,48.6697 130.547,51.0031 127.5,53.5C 128.885,54.5505 129.885,55.8839 130.5,57.5C 137.167,59.5 137.167,61.5 130.5,63.5C 128.991,67.1282 129.824,70.1282 133,72.5C 133.5,72.3333 134,72.1667 134.5,72C 132.689,70.9593 132.355,69.7927 133.5,68.5C 137.579,69.6373 141.579,70.9706 145.5,72.5C 145.5,74.8333 145.5,77.1667 145.5,79.5C 142.091,79.7507 138.758,79.4173 135.5,78.5C 131.783,79.9224 129.449,82.5891 128.5,86.5C 128.808,87.3081 129.308,87.9747 130,88.5C 131.571,86.0771 133.737,84.7438 136.5,84.5C 133.312,89.3934 134.145,93.3934 139,96.5C 139.333,97.8333 139.667,99.1667 140,100.5C 140.741,101.641 141.575,101.641 142.5,100.5C 143.298,100.957 143.631,101.624 143.5,102.5C 142.122,103.545 141.122,104.878 140.5,106.5C 139.761,106.369 139.094,106.536 138.5,107C 136,109.833 133.5,112.667 131,115.5C 129.219,111.605 127.719,107.605 126.5,103.5C 128.106,101.41 128.606,99.0762 128,96.5C 125.773,94.3932 123.773,92.0599 122,89.5C 121.966,82.7586 120.799,76.2586 118.5,70C 115.118,70.1945 111.785,70.0278 108.5,69.5C 106.617,69.8757 105.117,70.8757 104,72.5C 101.968,77.2837 101.134,82.2837 101.5,87.5C 100.686,85.369 100.186,83.0356 100,80.5C 97.1899,82.743 94.3565,85.0763 91.5,87.5C 106.342,63.3336 127.342,47.0002 154.5,38.5 Z"/></g>
<g><path style="opacity:1" fill="#f9f1d8" d="M 191.5,32.5 C 191.833,32.5 192.167,32.5 192.5,32.5C 188.887,47.1896 192.887,58.8562 204.5,67.5C 205.994,70.734 207.827,71.0673 210,68.5C 210.265,60.4882 210.265,52.4882 210,44.5C 210.725,42.842 211.892,42.342 213.5,43C 215.02,53.5202 214.686,64.0202 212.5,74.5C 213.979,80.2033 216.646,80.87 220.5,76.5C 220.634,78.2915 220.301,79.9582 219.5,81.5C 213.186,82.359 210.519,79.6923 211.5,73.5C 209.063,73.2437 206.729,72.5771 204.5,71.5C 203.416,68.9121 201.749,66.7455 199.5,65C 195.613,63.2809 192.947,60.4476 191.5,56.5C 191.5,48.5 191.5,40.5 191.5,32.5 Z"/></g>
<g><path style="opacity:1" fill="#fdf4dc" d="M 234.5,58.5 C 231.98,63.5574 229.98,68.8907 228.5,74.5C 225.996,75.6392 223.33,76.3059 220.5,76.5C 221.861,74.1495 223.194,71.8162 224.5,69.5C 226.817,63.5574 229.151,57.5574 231.5,51.5C 232.325,50.6143 233.325,50.281 234.5,50.5C 234.5,53.1667 234.5,55.8333 234.5,58.5 Z"/></g>
<g><path style="opacity:1" fill="#213342" d="M 218.5,89.5 C 220.28,92.2901 222.613,94.2901 225.5,95.5C 223.622,96.2076 221.955,97.3743 220.5,99C 221.654,99.9138 221.487,100.747 220,101.5C 216.908,100.725 213.741,99.3921 210.5,97.5C 209.039,94.745 206.705,92.9116 203.5,92C 200.018,87.8217 196.018,84.3217 191.5,81.5C 187.525,84.4667 183.525,87.4667 179.5,90.5C 178.369,89.2485 177.036,88.2485 175.5,87.5C 173.655,88.9378 172.489,88.6044 172,86.5C 171.388,89.6008 169.888,91.2675 167.5,91.5C 168.665,92.5836 169.998,93.4169 171.5,94C 170.809,95.0674 170.309,96.2341 170,97.5C 166.015,99.3793 162.349,101.713 159,104.5C 153.681,102.244 151.847,103.744 153.5,109C 152.956,109.717 152.289,110.217 151.5,110.5C 150.533,109.194 149.199,108.527 147.5,108.5C 161.812,93.521 176.479,78.8543 191.5,64.5C 200.24,73.2446 209.24,81.578 218.5,89.5 Z"/></g>
<g><path style="opacity:1" fill="#f4f7f4" d="M 228.5,74.5 C 229.167,74.5 229.833,74.5 230.5,74.5C 234.684,75.1664 239.018,75.8331 243.5,76.5C 245.325,79.8768 245.992,83.5435 245.5,87.5C 257.171,87.6665 268.838,87.4999 280.5,87C 283.695,86.8195 286.695,86.3195 289.5,85.5C 289.833,85.5 290.167,85.5 290.5,85.5C 292.651,84.3458 294.651,83.0125 296.5,81.5C 301.861,88.8851 306.194,96.8851 309.5,105.5C 308.883,105.611 308.383,105.944 308,106.5C 305.812,103.931 302.979,102.597 299.5,102.5C 299.611,101.883 299.944,101.383 300.5,101C 299.206,98.913 298.039,96.7463 297,94.5C 295.67,93.4178 294.17,92.7512 292.5,92.5C 291.081,91.5489 289.415,91.2155 287.5,91.5C 275.674,90.3403 263.674,90.1737 251.5,91C 245.735,95.1858 245.068,100.019 249.5,105.5C 249.611,106.117 249.944,106.617 250.5,107C 253.482,107.498 256.482,107.665 259.5,107.5C 260.659,108.74 261.659,110.074 262.5,111.5C 262.091,115.848 261.924,120.181 262,124.5C 262.708,125.381 263.542,126.047 264.5,126.5C 266.5,129.167 268.833,131.5 271.5,133.5C 271.811,134.478 272.478,135.145 273.5,135.5C 274.042,129.606 275.042,123.94 276.5,118.5C 277.391,119.261 278.058,120.261 278.5,121.5C 277.414,127.802 277.247,134.135 278,140.5C 280.694,144.54 283.861,148.207 287.5,151.5C 284.344,152.384 281.344,153.384 278.5,154.5C 271.159,154.334 263.826,154.5 256.5,155C 255.205,158.786 255.205,162.62 256.5,166.5C 258.921,164.066 261.588,162.066 264.5,160.5C 266.482,159.183 268.482,159.183 270.5,160.5C 272.087,159.638 273.754,158.971 275.5,158.5C 279.097,159.589 282.763,160.255 286.5,160.5C 286.657,161.873 286.49,163.207 286,164.5C 285.667,163.833 285.333,163.167 285,162.5C 284.329,163.252 283.496,163.586 282.5,163.5C 269.093,159.869 261.093,164.869 258.5,178.5C 259.978,191.156 266.978,196.989 279.5,196C 281.391,194.558 283.391,193.391 285.5,192.5C 285.527,194.199 286.194,195.533 287.5,196.5C 283.732,198.377 279.732,199.71 275.5,200.5C 270.443,199.739 265.776,198.072 261.5,195.5C 261.849,199.53 263.849,202.53 267.5,204.5C 267.567,205.959 267.234,207.292 266.5,208.5C 265.732,209.263 265.232,210.263 265,211.5C 264.5,222.495 264.333,233.495 264.5,244.5C 264.358,248.981 262.025,251.648 257.5,252.5C 256.702,252.043 256.369,251.376 256.5,250.5C 257.872,249.488 259.205,248.488 260.5,247.5C 261.117,247.389 261.617,247.056 262,246.5C 262.827,232.327 262.661,218.327 261.5,204.5C 260.833,204.167 260.167,203.833 259.5,203.5C 258.48,202.046 257.313,201.713 256,202.5C 255.5,217.83 255.333,233.163 255.5,248.5C 254.391,248.443 253.391,248.11 252.5,247.5C 251.584,232.525 251.251,217.525 251.5,202.5C 252.895,204.054 253.561,203.721 253.5,201.5C 251.934,195.817 251.267,189.984 251.5,184C 251.293,177.707 251.959,171.54 253.5,165.5C 251.921,160.65 251.088,155.65 251,150.5C 246.833,147 243,143.167 239.5,139C 240.167,138.333 240.833,137.667 241.5,137C 239.285,136.83 237.285,136.163 235.5,135C 236.973,134.29 237.64,133.124 237.5,131.5C 243.5,137.167 249.5,142.833 255.5,148.5C 262.989,149.656 270.655,149.822 278.5,149C 266.056,137.557 253.889,125.724 242,113.5C 240.546,102.603 240.046,91.6029 240.5,80.5C 235.5,80.5 230.5,80.5 225.5,80.5C 225.5,85.5 225.5,90.5 225.5,95.5C 222.613,94.2901 220.28,92.2901 218.5,89.5C 216.933,86.6687 217.599,84.3354 220.5,82.5C 220.376,81.8933 220.043,81.56 219.5,81.5C 220.301,79.9582 220.634,78.2915 220.5,76.5C 223.33,76.3059 225.996,75.6392 228.5,74.5 Z"/></g>
<g><path style="opacity:1" fill="#efc484" d="M 289.5,82.5 C 290.404,83.209 290.737,84.209 290.5,85.5C 290.167,85.5 289.833,85.5 289.5,85.5C 275.131,85.2176 260.797,85.5509 246.5,86.5C 246.334,82.1539 246.501,77.8206 247,73.5C 249.376,70.9552 251.876,68.6218 254.5,66.5C 254.113,65.2801 253.28,64.6135 252,64.5C 249.097,65.76 246.597,67.4266 244.5,69.5C 245.614,68.1147 246.614,66.6147 247.5,65C 252.592,61.0233 255.092,62.19 255,68.5C 248.097,71.6906 245.597,77.024 247.5,84.5C 248.873,84.6567 250.207,84.49 251.5,84C 257.254,80.7452 262.587,76.9118 267.5,72.5C 269.98,73.4154 270.647,74.9154 269.5,77C 264.384,77.6198 260.05,79.7865 256.5,83.5C 262,83.8333 267.5,84.1667 273,84.5C 278.876,84.4952 284.376,83.8286 289.5,82.5 Z"/></g>
<g><path style="opacity:1" fill="#2fafbe" d="M 174.5,68.5 C 173.494,69.3957 173.494,70.0623 174.5,70.5C 164.475,81.5239 154.142,92.1906 143.5,102.5C 143.631,101.624 143.298,100.957 142.5,100.5C 141.575,101.641 140.741,101.641 140,100.5C 139.667,99.1667 139.333,97.8333 139,96.5C 134.145,93.3934 133.312,89.3934 136.5,84.5C 133.737,84.7438 131.571,86.0771 130,88.5C 129.308,87.9747 128.808,87.3081 128.5,86.5C 129.449,82.5891 131.783,79.9224 135.5,78.5C 138.758,79.4173 142.091,79.7507 145.5,79.5C 145.5,77.1667 145.5,74.8333 145.5,72.5C 147.628,76.2987 149.461,80.2987 151,84.5C 152.219,80.3953 153.719,76.3953 155.5,72.5C 158.323,70.7807 161.323,69.4473 164.5,68.5C 165.583,68.4606 166.583,68.1272 167.5,67.5C 169.426,71.0359 171.76,71.3692 174.5,68.5 Z"/></g>
<g><path style="opacity:1" fill="#fef6dc" d="M 289.5,85.5 C 286.695,86.3195 283.695,86.8195 280.5,87C 268.838,87.4999 257.171,87.6665 245.5,87.5C 245.992,83.5435 245.325,79.8768 243.5,76.5C 239.018,75.8331 234.684,75.1664 230.5,74.5C 234.182,74.6653 237.848,74.4986 241.5,74C 242.71,72.9609 243.71,71.7942 244.5,70.5C 244.5,70.1667 244.5,69.8333 244.5,69.5C 246.597,67.4266 249.097,65.76 252,64.5C 253.28,64.6135 254.113,65.2801 254.5,66.5C 251.876,68.6218 249.376,70.9552 247,73.5C 246.501,77.8206 246.334,82.1539 246.5,86.5C 260.797,85.5509 275.131,85.2176 289.5,85.5 Z"/></g>
<g><path style="opacity:0.999" fill="#f0f7f6" d="M 321.5,82.5 C 327.94,93.2232 332.607,104.723 335.5,117C 346.167,117.333 356.833,117.667 367.5,118C 369.994,119.946 370.661,122.279 369.5,125C 358.839,125.5 348.172,125.667 337.5,125.5C 337.163,129.308 337.663,132.974 339,136.5C 346.61,132.344 354.777,130.678 363.5,131.5C 368.582,131.419 373.582,131.919 378.5,133C 379.894,133.956 380.561,135.289 380.5,137C 375.334,160.745 360.668,171.579 336.5,169.5C 334.829,172.608 333.829,176.108 333.5,180C 331.597,181.828 329.764,181.661 328,179.5C 327.667,180.5 327.333,181.5 327,182.5C 326.506,180.866 326.34,179.199 326.5,177.5C 328.963,164.552 329.63,151.552 328.5,138.5C 327.143,121.687 322.81,105.687 315.5,90.5C 315.319,87.447 315.152,84.447 315,81.5C 315.333,81.1667 315.667,80.8333 316,80.5C 317.815,81.2444 319.648,81.9111 321.5,82.5 Z"/></g>
<g><path style="opacity:1" fill="#216589" d="M 287.5,91.5 C 276.495,91.3335 265.495,91.5002 254.5,92C 264.342,92.17 274.009,92.67 283.5,93.5C 273.161,93.3335 262.828,93.5002 252.5,94C 252.043,94.414 251.709,94.914 251.5,95.5C 253.743,96.4742 256.076,96.8076 258.5,96.5C 258.201,98.604 258.534,100.604 259.5,102.5C 260.48,99.9135 260.813,97.2469 260.5,94.5C 261.5,94.5 262.5,94.5 263.5,94.5C 263.5,97.1667 263.5,99.8333 263.5,102.5C 270.123,103.38 276.789,103.713 283.5,103.5C 272.167,104.167 260.833,104.833 249.5,105.5C 245.068,100.019 245.735,95.1858 251.5,91C 263.674,90.1737 275.674,90.3403 287.5,91.5 Z"/></g>
<g><path style="opacity:1" fill="#2ebae4" d="M 283.5,93.5 C 283.5,96.8333 283.5,100.167 283.5,103.5C 276.789,103.713 270.123,103.38 263.5,102.5C 263.5,99.8333 263.5,97.1667 263.5,94.5C 262.5,94.5 261.5,94.5 260.5,94.5C 260.813,97.2469 260.48,99.9135 259.5,102.5C 258.534,100.604 258.201,98.604 258.5,96.5C 256.076,96.8076 253.743,96.4742 251.5,95.5C 251.709,94.914 252.043,94.414 252.5,94C 262.828,93.5002 273.161,93.3335 283.5,93.5 Z"/></g>
<g><path style="opacity:1" fill="#dff3f4" d="M 140.5,106.5 C 138.441,112.192 134.441,115.525 128.5,116.5C 128.47,120.618 127.803,124.618 126.5,128.5C 125.928,126.881 125.595,125.215 125.5,123.5C 123.929,124.309 122.262,124.643 120.5,124.5C 120.662,126.527 120.495,128.527 120,130.5C 117.108,133.057 113.941,135.224 110.5,137C 107.922,139.074 105.922,141.574 104.5,144.5C 102.026,145.32 99.6929,146.32 97.5,147.5C 104.105,141.397 110.605,135.063 117,128.5C 117.167,127.833 117.333,127.167 117.5,126.5C 115.831,121.146 114.165,115.812 112.5,110.5C 109.736,116.888 107.902,123.555 107,130.5C 105.521,133.305 103.688,135.805 101.5,138C 96.6162,139.141 93.4496,137.308 92,132.5C 91.2891,121.889 93.4557,111.889 98.5,102.5C 97.2485,101.369 96.2485,100.036 95.5,98.5C 96.3775,95.4514 98.2109,93.1181 101,91.5C 101.49,90.2068 101.657,88.8734 101.5,87.5C 101.134,82.2837 101.968,77.2837 104,72.5C 105.117,70.8757 106.617,69.8757 108.5,69.5C 111.785,70.0278 115.118,70.1945 118.5,70C 120.799,76.2586 121.966,82.7586 122,89.5C 123.773,92.0599 125.773,94.3932 128,96.5C 128.606,99.0762 128.106,101.41 126.5,103.5C 127.719,107.605 129.219,111.605 131,115.5C 133.5,112.667 136,109.833 138.5,107C 139.094,106.536 139.761,106.369 140.5,106.5 Z"/></g>
<g><path style="opacity:1" fill="#121f2b" d="M 292.5,92.5 C 294.17,92.7512 295.67,93.4178 297,94.5C 298.039,96.7463 299.206,98.913 300.5,101C 299.944,101.383 299.611,101.883 299.5,102.5C 296.728,102.759 294.395,103.759 292.5,105.5C 291.2,103.777 290.533,101.61 290.5,99C 290.533,96.3897 291.2,94.223 292.5,92.5 Z"/></g>
<g><path style="opacity:0.988" fill="#e0e7e9" d="M 32.5,96.5 C 37.5081,96.1682 40.5081,98.5015 41.5,103.5C 41.1243,105.383 40.1243,106.883 38.5,108C 31.0813,110.556 27.9146,108.056 29,100.5C 30.1022,99.051 31.2689,97.7177 32.5,96.5 Z"/></g>
<g><path style="opacity:1" fill="#94b2c0" d="M 287.5,91.5 C 289.415,91.2155 291.081,91.5489 292.5,92.5C 291.2,94.223 290.533,96.3897 290.5,99C 290.533,101.61 291.2,103.777 292.5,105.5C 291.081,106.451 289.415,106.784 287.5,106.5C 287.5,101.5 287.5,96.5 287.5,91.5 Z"/></g>
<g><path style="opacity:1" fill="#1b2c3a" d="M 255.5,148.5 C 261.842,148.666 268.175,148.5 274.5,148C 271.228,147.563 269.561,145.73 269.5,142.5C 267.217,142.392 265.217,141.559 263.5,140C 261.224,136.685 258.224,133.352 254.5,130C 249.595,130.128 244.929,129.794 240.5,129C 236.67,123.22 232.503,118.386 228,114.5C 227.517,113.552 227.351,112.552 227.5,111.5C 226.448,111.649 225.448,111.483 224.5,111C 219.938,106.269 215.271,101.769 210.5,97.5C 213.741,99.3921 216.908,100.725 220,101.5C 221.487,100.747 221.654,99.9138 220.5,99C 221.955,97.3743 223.622,96.2076 225.5,95.5C 225.5,90.5 225.5,85.5 225.5,80.5C 230.5,80.5 235.5,80.5 240.5,80.5C 240.046,91.6029 240.546,102.603 242,113.5C 253.889,125.724 266.056,137.557 278.5,149C 270.655,149.822 262.989,149.656 255.5,148.5 Z"/></g>
<g><path style="opacity:1" fill="#f8f6ed" d="M 299.5,102.5 C 302.979,102.597 305.812,103.931 308,106.5C 308.383,105.944 308.883,105.611 309.5,105.5C 312.621,111.724 314.621,118.391 315.5,125.5C 315.263,129.722 315.596,133.889 316.5,138C 314.355,141.494 314.022,145.16 315.5,149C 314.036,155.035 313.203,161.201 313,167.5C 311.81,171.381 311.143,175.381 311,179.5C 309.956,180.623 309.29,181.956 309,183.5C 308.329,184.252 307.496,184.586 306.5,184.5C 311.753,165.025 312.586,145.358 309,125.5C 308.339,122.198 307.172,119.198 305.5,116.5C 305.768,114.901 305.434,113.568 304.5,112.5C 304.5,111.167 304.5,109.833 304.5,108.5C 298.545,109.05 292.878,110.384 287.5,112.5C 286.883,112.611 286.383,112.944 286,113.5C 285.503,115.81 285.337,118.143 285.5,120.5C 284.5,120.5 283.5,120.5 282.5,120.5C 282.795,118.265 282.461,116.265 281.5,114.5C 281.483,112.435 281.15,110.435 280.5,108.5C 282.952,107.935 285.285,107.268 287.5,106.5C 289.415,106.784 291.081,106.451 292.5,105.5C 294.395,103.759 296.728,102.759 299.5,102.5 Z"/></g>
<g><path style="opacity:0.912" fill="#e3eaed" d="M 345.5,96.5 C 352.141,96.6389 354.974,99.9722 354,106.5C 350.114,111.501 346.447,111.501 343,106.5C 342.024,102.673 342.857,99.3396 345.5,96.5 Z"/></g>
<g><path style="opacity:1" fill="#188d97" d="M 101.5,87.5 C 101.657,88.8734 101.49,90.2068 101,91.5C 98.2109,93.1181 96.3775,95.4514 95.5,98.5C 96.2485,100.036 97.2485,101.369 98.5,102.5C 93.4557,111.889 91.2891,121.889 92,132.5C 93.4496,137.308 96.6162,139.141 101.5,138C 103.688,135.805 105.521,133.305 107,130.5C 107.902,123.555 109.736,116.888 112.5,110.5C 114.165,115.812 115.831,121.146 117.5,126.5C 117.333,127.167 117.167,127.833 117,128.5C 110.605,135.063 104.105,141.397 97.5,147.5C 94.9066,148.754 92.5732,150.42 90.5,152.5C 88.2495,152.819 86.2495,152.319 84.5,151C 87.6994,150.599 90.6994,149.766 93.5,148.5C 93.33,147.178 93.6634,146.011 94.5,145C 93.646,143.978 92.646,143.145 91.5,142.5C 90.0834,146.319 87.0834,147.319 82.5,145.5C 82.2865,147.144 82.6198,148.644 83.5,150C 82.552,150.483 81.552,150.649 80.5,150.5C 80.5,147.833 80.5,145.167 80.5,142.5C 91.682,144.071 93.182,141.071 85,133.5C 82.7131,135.054 80.5465,136.721 78.5,138.5C 78.4781,134.975 78.9781,131.642 80,128.5C 79,127.833 78,127.167 77,126.5C 76.4005,128.91 75.2338,130.91 73.5,132.5C 76.6311,116.264 82.6311,101.264 91.5,87.5C 94.3565,85.0763 97.1899,82.743 100,80.5C 100.186,83.0356 100.686,85.369 101.5,87.5 Z"/></g>
<g><path style="opacity:1" fill="#0b2b40" d="M 287.5,91.5 C 287.5,96.5 287.5,101.5 287.5,106.5C 285.285,107.268 282.952,107.935 280.5,108.5C 278.876,108.36 277.71,109.027 277,110.5C 276.503,113.146 276.336,115.813 276.5,118.5C 275.042,123.94 274.042,129.606 273.5,135.5C 272.478,135.145 271.811,134.478 271.5,133.5C 272.506,124.822 273.506,116.155 274.5,107.5C 269.5,107.5 264.5,107.5 259.5,107.5C 256.482,107.665 253.482,107.498 250.5,107C 249.944,106.617 249.611,106.117 249.5,105.5C 260.833,104.833 272.167,104.167 283.5,103.5C 283.5,100.167 283.5,96.8333 283.5,93.5C 274.009,92.67 264.342,92.17 254.5,92C 265.495,91.5002 276.495,91.3335 287.5,91.5 Z"/></g>
<g><path style="opacity:1" fill="#182530" d="M 210.5,97.5 C 215.271,101.769 219.938,106.269 224.5,111C 225.448,111.483 226.448,111.649 227.5,111.5C 227.351,112.552 227.517,113.552 228,114.5C 232.503,118.386 236.67,123.22 240.5,129C 244.929,129.794 249.595,130.128 254.5,130C 258.224,133.352 261.224,136.685 263.5,140C 265.217,141.559 267.217,142.392 269.5,142.5C 269.561,145.73 271.228,147.563 274.5,148C 268.175,148.5 261.842,148.666 255.5,148.5C 249.5,142.833 243.5,137.167 237.5,131.5C 222.824,115.824 207.49,100.824 191.5,86.5C 177.813,99.8546 164.146,113.188 150.5,126.5C 150.373,123.755 151.54,121.755 154,120.5C 154.49,119.207 154.657,117.873 154.5,116.5C 146.427,117.969 145.427,115.969 151.5,110.5C 152.289,110.217 152.956,109.717 153.5,109C 151.847,103.744 153.681,102.244 159,104.5C 162.349,101.713 166.015,99.3793 170,97.5C 170.309,96.2341 170.809,95.0674 171.5,94C 169.998,93.4169 168.665,92.5836 167.5,91.5C 169.888,91.2675 171.388,89.6008 172,86.5C 172.489,88.6044 173.655,88.9378 175.5,87.5C 177.036,88.2485 178.369,89.2485 179.5,90.5C 183.525,87.4667 187.525,84.4667 191.5,81.5C 196.018,84.3217 200.018,87.8217 203.5,92C 206.705,92.9116 209.039,94.745 210.5,97.5 Z"/></g>
<g><path style="opacity:1" fill="#102330" d="M 107.5,74.5 C 109.22,76.6581 110.053,79.3248 110,82.5C 110.368,83.91 111.201,84.91 112.5,85.5C 113.321,82.5535 113.821,79.5535 114,76.5C 114.667,75.1667 115.333,75.1667 116,76.5C 117.161,81.4164 117.827,86.4164 118,91.5C 119.78,93.2929 121.613,94.9596 123.5,96.5C 122.07,99.4327 120.07,101.933 117.5,104C 118.951,103.737 120.284,103.904 121.5,104.5C 123.923,109.65 125.423,114.983 126,120.5C 124.414,121.376 122.914,122.376 121.5,123.5C 118.392,116.797 116.226,109.797 115,102.5C 112.699,98.6049 110.699,98.9382 109,103.5C 106.032,112.706 103.699,122.039 102,131.5C 100.084,134.033 98.084,134.033 96,131.5C 96.5977,121.109 99.0977,111.109 103.5,101.5C 102.687,100.186 101.687,99.0195 100.5,98C 102,96.5 103.5,95 105,93.5C 105.079,87.0276 105.912,80.6943 107.5,74.5 Z"/></g>
<g><path style="opacity:1" fill="#a6b5c0" d="M 109.5,90.5 C 111.149,91.714 112.815,93.0473 114.5,94.5C 115.696,94.1543 115.696,93.6543 114.5,93C 117.091,92.6992 117.925,93.8659 117,96.5C 116.586,96.9574 116.086,97.2907 115.5,97.5C 113.972,96.1387 112.305,94.972 110.5,94C 109.663,92.9887 109.33,91.8221 109.5,90.5 Z"/></g>
<g><path style="opacity:1" fill="#d59154" d="M 248.5,112.5 C 254.639,109.804 257.639,111.804 257.5,118.5C 256.448,118.649 255.448,118.483 254.5,118C 253.248,115.308 251.248,113.475 248.5,112.5 Z"/></g>
<g><path style="opacity:1" fill="#f26904" d="M 304.5,112.5 C 305.434,113.568 305.768,114.901 305.5,116.5C 306.737,122.36 307.737,128.36 308.5,134.5C 309.497,141.134 309.83,147.8 309.5,154.5C 308.448,154.649 307.448,154.483 306.5,154C 304.986,149.892 302.986,149.559 300.5,153C 303.715,155.61 305.215,159.11 305,163.5C 305.915,162.672 306.581,161.672 307,160.5C 307.87,161.108 308.37,161.941 308.5,163C 307.968,168.242 307.135,173.409 306,178.5C 303.886,174.05 302.386,169.383 301.5,164.5C 298.811,167.284 296.644,166.951 295,163.5C 294.88,159.989 296.214,159.655 299,162.5C 300.754,157.611 299.254,154.611 294.5,153.5C 293.378,151.948 292.878,150.282 293,148.5C 296.996,146.918 300.83,144.918 304.5,142.5C 305.894,140.418 305.561,138.751 303.5,137.5C 301.987,135.484 301.153,133.151 301,130.5C 299.333,130.167 297.667,129.833 296,129.5C 295.667,130.833 295.333,132.167 295,133.5C 291.575,134.09 289.742,136.09 289.5,139.5C 290.992,141.781 292.159,144.115 293,146.5C 291.951,147.517 290.784,147.684 289.5,147C 288.076,144.782 286.076,143.282 283.5,142.5C 281.453,136.938 281.12,131.271 282.5,125.5C 284.949,125.02 287.115,124.02 289,122.5C 289.498,119.183 289.665,115.85 289.5,112.5C 293.608,112.564 297.442,111.564 301,109.5C 302.599,110.071 303.766,111.071 304.5,112.5 Z"/></g>
<g><path style="opacity:1" fill="#be8f51" d="M 280.5,108.5 C 281.15,110.435 281.483,112.435 281.5,114.5C 281.5,115.833 281.5,117.167 281.5,118.5C 279.833,118.5 278.167,118.5 276.5,118.5C 276.336,115.813 276.503,113.146 277,110.5C 277.71,109.027 278.876,108.36 280.5,108.5 Z"/></g>
<g><path style="opacity:1" fill="#1a93b9" d="M 259.5,107.5 C 264.5,107.5 269.5,107.5 274.5,107.5C 273.506,116.155 272.506,124.822 271.5,133.5C 268.833,131.5 266.5,129.167 264.5,126.5C 265.814,121.652 265.814,116.652 264.5,111.5C 263.571,110.45 262.905,110.45 262.5,111.5C 261.659,110.074 260.659,108.74 259.5,107.5 Z"/></g>
<g><path style="opacity:1" fill="#1dbbeb" d="M 221.5,124.5 C 230.135,133.967 239.301,142.967 249,151.5C 249.828,166.672 249.661,181.672 248.5,196.5C 248.5,196.167 248.5,195.833 248.5,195.5C 249.132,187.427 248.465,179.76 246.5,172.5C 247.337,165.478 247.337,158.478 246.5,151.5C 245.155,148.256 242.988,147.256 240,148.5C 239.804,146.714 238.971,145.381 237.5,144.5C 235.724,146.447 233.724,146.78 231.5,145.5C 232.32,143.889 233.654,143.222 235.5,143.5C 235.5,140.167 233.833,138.5 230.5,138.5C 230.517,141.991 229.017,144.658 226,146.5C 222.402,143.716 219.069,140.716 216,137.5C 215.055,137.905 214.388,138.572 214,139.5C 213.665,136.81 212.499,136.143 210.5,137.5C 211.084,134.715 210.084,133.048 207.5,132.5C 206.976,129.812 205.309,128.312 202.5,128C 195.394,127.926 188.394,127.26 181.5,126C 178.792,123.303 176.959,120.137 176,116.5C 174.27,116.509 172.437,116.842 170.5,117.5C 168.985,119.547 168.151,121.881 168,124.5C 167.282,123.549 166.449,123.383 165.5,124C 168.495,126.217 168.662,128.05 166,129.5C 163.774,128.967 161.607,128.3 159.5,127.5C 163.93,121.349 169.263,116.016 175.5,111.5C 179.074,109.607 182.407,107.273 185.5,104.5C 187.453,105.156 189.453,105.489 191.5,105.5C 191.38,107.199 191.046,108.865 190.5,110.5C 190.632,112.601 191.632,114.101 193.5,115C 192.138,117.034 191.138,119.201 190.5,121.5C 194.237,121.803 197.737,122.803 201,124.5C 202.8,123.622 204.633,122.955 206.5,122.5C 206.5,123.5 206.5,124.5 206.5,125.5C 208.167,125.5 209.833,125.5 211.5,125.5C 211.119,127.942 211.786,128.609 213.5,127.5C 214.833,126.167 214.833,124.833 213.5,123.5C 210.528,121.694 207.695,119.694 205,117.5C 204.333,116.167 204.333,114.833 205,113.5C 208.866,116.335 212.366,119.502 215.5,123C 217.345,124.128 219.345,124.628 221.5,124.5 Z"/></g>
<g><path style="opacity:1" fill="#eaf7f7" d="M 237.5,131.5 C 237.64,133.124 236.973,134.29 235.5,135C 237.285,136.163 239.285,136.83 241.5,137C 240.833,137.667 240.167,138.333 239.5,139C 243,143.167 246.833,147 251,150.5C 251.088,155.65 251.921,160.65 253.5,165.5C 251.959,171.54 251.293,177.707 251.5,184C 251.267,189.984 251.934,195.817 253.5,201.5C 253.561,203.721 252.895,204.054 251.5,202.5C 246.7,202.071 243.033,204.071 240.5,208.5C 237.834,208.933 235.168,209.433 232.5,210C 231.23,210.9 230.23,212.066 229.5,213.5C 227.105,212.477 226.105,213.477 226.5,216.5C 224.379,216.675 222.379,216.341 220.5,215.5C 221.29,214.206 222.29,213.039 223.5,212C 232.026,206.939 240.36,201.772 248.5,196.5C 249.661,181.672 249.828,166.672 249,151.5C 239.301,142.967 230.135,133.967 221.5,124.5C 211.469,114.969 201.636,105.302 192,95.5C 185.844,100.132 180.344,105.466 175.5,111.5C 169.263,116.016 163.93,121.349 159.5,127.5C 151.973,134.14 144.639,141.14 137.5,148.5C 137.167,148.5 136.833,148.5 136.5,148.5C 134.61,148.297 133.11,148.963 132,150.5C 131.501,155.155 131.334,159.821 131.5,164.5C 130.5,164.5 129.5,164.5 128.5,164.5C 127.659,162.621 127.325,160.621 127.5,158.5C 127.5,157.5 127.5,156.5 127.5,155.5C 115.167,155.5 102.833,155.5 90.5,155.5C 90.5,154.5 90.5,153.5 90.5,152.5C 92.5732,150.42 94.9066,148.754 97.5,147.5C 99.6929,146.32 102.026,145.32 104.5,144.5C 105.922,141.574 107.922,139.074 110.5,137C 113.941,135.224 117.108,133.057 120,130.5C 120.495,128.527 120.662,126.527 120.5,124.5C 122.262,124.643 123.929,124.309 125.5,123.5C 125.595,125.215 125.928,126.881 126.5,128.5C 119.966,136.201 112.633,143.034 104.5,149C 112.167,149.667 119.833,149.667 127.5,149C 135.393,141.605 143.06,134.105 150.5,126.5C 164.146,113.188 177.813,99.8546 191.5,86.5C 207.49,100.824 222.824,115.824 237.5,131.5 Z"/></g>
<g><path style="opacity:1" fill="#22c2ec" d="M 221.5,124.5 C 219.345,124.628 217.345,124.128 215.5,123C 212.366,119.502 208.866,116.335 205,113.5C 204.333,114.833 204.333,116.167 205,117.5C 207.695,119.694 210.528,121.694 213.5,123.5C 214.833,124.833 214.833,126.167 213.5,127.5C 211.786,128.609 211.119,127.942 211.5,125.5C 209.833,125.5 208.167,125.5 206.5,125.5C 206.5,124.5 206.5,123.5 206.5,122.5C 204.633,122.955 202.8,123.622 201,124.5C 197.737,122.803 194.237,121.803 190.5,121.5C 191.138,119.201 192.138,117.034 193.5,115C 191.632,114.101 190.632,112.601 190.5,110.5C 191.046,108.865 191.38,107.199 191.5,105.5C 189.453,105.489 187.453,105.156 185.5,104.5C 182.407,107.273 179.074,109.607 175.5,111.5C 180.344,105.466 185.844,100.132 192,95.5C 201.636,105.302 211.469,114.969 221.5,124.5 Z"/></g>
<g><path style="opacity:1" fill="#122f46" d="M 264.5,126.5 C 263.542,126.047 262.708,125.381 262,124.5C 261.924,120.181 262.091,115.848 262.5,111.5C 262.905,110.45 263.571,110.45 264.5,111.5C 265.814,116.652 265.814,121.652 264.5,126.5 Z"/></g>
<g><path style="opacity:1" fill="#fdedd2" d="M 287.5,112.5 C 289.379,119.608 286.712,123.275 279.5,123.5C 279.334,129.509 279.501,135.509 280,141.5C 283.333,144.833 286.667,148.167 290,151.5C 290.483,152.448 290.649,153.448 290.5,154.5C 286.5,154.5 282.5,154.5 278.5,154.5C 281.344,153.384 284.344,152.384 287.5,151.5C 283.861,148.207 280.694,144.54 278,140.5C 277.247,134.135 277.414,127.802 278.5,121.5C 278.058,120.261 277.391,119.261 276.5,118.5C 278.167,118.5 279.833,118.5 281.5,118.5C 281.5,117.167 281.5,115.833 281.5,114.5C 282.461,116.265 282.795,118.265 282.5,120.5C 283.5,120.5 284.5,120.5 285.5,120.5C 285.337,118.143 285.503,115.81 286,113.5C 286.383,112.944 286.883,112.611 287.5,112.5 Z"/></g>
<g><path style="opacity:0.975" fill="#c1cbce" d="M 49.5,113.5 C 48.7286,119.669 47.7286,125.669 46.5,131.5C 46.5,129.167 46.5,126.833 46.5,124.5C 35.5163,125.486 24.5163,125.653 13.5,125C 12.4086,122.936 12.2419,120.769 13,118.5C 24.7527,117.512 36.5861,117.179 48.5,117.5C 48.2322,115.901 48.5655,114.568 49.5,113.5 Z"/></g>
<g><path style="opacity:1" fill="#bfccd7" d="M 98.5,127.5 C 99.5862,127.62 100.253,128.287 100.5,129.5C 100.167,130.167 99.8333,130.833 99.5,131.5C 98.5713,130.311 98.238,128.978 98.5,127.5 Z"/></g>
<g><path style="opacity:1" fill="#12202c" d="M 147.5,108.5 C 149.199,108.527 150.533,109.194 151.5,110.5C 145.427,115.969 146.427,117.969 154.5,116.5C 154.657,117.873 154.49,119.207 154,120.5C 151.54,121.755 150.373,123.755 150.5,126.5C 143.06,134.105 135.393,141.605 127.5,149C 119.833,149.667 112.167,149.667 104.5,149C 112.633,143.034 119.966,136.201 126.5,128.5C 133.5,121.833 140.5,115.167 147.5,108.5 Z"/></g>
<g><path style="opacity:1" fill="#d8f8f9" d="M 80.5,142.5 C 79.3995,141.395 78.7329,140.062 78.5,138.5C 80.5465,136.721 82.7131,135.054 85,133.5C 93.182,141.071 91.682,144.071 80.5,142.5 Z"/></g>
<g><path style="opacity:1" fill="#7ab71f" d="M 14.5,138.5 C 22.7328,137.914 30.7328,138.914 38.5,141.5C 39.5137,142.674 40.847,143.34 42.5,143.5C 43.4577,144.962 44.6244,146.295 46,147.5C 46.4935,149.134 46.6602,150.801 46.5,152.5C 40.3332,151.088 34.3332,149.088 28.5,146.5C 26.1966,146.876 25.8632,147.876 27.5,149.5C 25.4017,150.963 23.4017,150.796 21.5,149C 19.6499,146.982 17.6499,145.149 15.5,143.5C 14.6906,141.929 14.3573,140.262 14.5,138.5 Z"/></g>
<g><path style="opacity:1" fill="#88bf20" d="M 369.5,145.5 C 369.141,143.169 368.474,143.335 367.5,146C 364.413,146.259 361.413,146.759 358.5,147.5C 358.53,146.503 358.03,145.836 357,145.5C 350.981,148.007 344.814,150.007 338.5,151.5C 338.372,147.415 340.039,144.415 343.5,142.5C 346.219,140.014 349.553,138.847 353.5,139C 359.825,138.5 366.158,138.334 372.5,138.5C 372.293,141.241 371.293,143.574 369.5,145.5 Z"/></g>
<g><path style="opacity:1" fill="#1ea4d0" d="M 207.5,132.5 C 205.697,131.954 204.03,131.12 202.5,130C 193.785,129.196 185.118,129.363 176.5,130.5C 175.808,131.025 175.308,131.692 175,132.5C 174.5,142.494 174.334,152.494 174.5,162.5C 174.167,162.5 173.833,162.5 173.5,162.5C 173.657,161.127 173.49,159.793 173,158.5C 170.282,155.452 168.448,151.952 167.5,148C 164.177,147.991 163.843,148.991 166.5,151C 166.138,152.225 165.638,153.391 165,154.5C 164.15,153.576 163.15,153.576 162,154.5C 158.442,152.568 154.942,150.734 151.5,149C 152.167,148.667 152.833,148.333 153.5,148C 150.105,144.421 146.105,143.587 141.5,145.5C 141.88,147.698 141.213,149.365 139.5,150.5C 138.833,149.833 138.167,149.167 137.5,148.5C 144.639,141.14 151.973,134.14 159.5,127.5C 161.607,128.3 163.774,128.967 166,129.5C 168.662,128.05 168.495,126.217 165.5,124C 166.449,123.383 167.282,123.549 168,124.5C 168.151,121.881 168.985,119.547 170.5,117.5C 172.437,116.842 174.27,116.509 176,116.5C 176.959,120.137 178.792,123.303 181.5,126C 188.394,127.26 195.394,127.926 202.5,128C 205.309,128.312 206.976,129.812 207.5,132.5 Z"/></g>
<g><path style="opacity:1" fill="#ebf8d8" d="M 38.5,141.5 C 30.7328,138.914 22.7328,137.914 14.5,138.5C 12.6558,139.204 12.1558,140.537 13,142.5C 15.944,149.402 20.1107,155.402 25.5,160.5C 20.5804,159.719 17.2471,157.052 15.5,152.5C 13.8333,151.833 12.1667,151.167 10.5,150.5C 11.5321,145.956 11.5321,141.623 10.5,137.5C 11.8524,136.104 13.5191,135.437 15.5,135.5C 21.8635,136.124 28.1969,136.957 34.5,138C 36.3237,138.66 37.657,139.827 38.5,141.5 Z"/></g>
<g><path style="opacity:1" fill="#e07928" d="M 304.5,112.5 C 303.766,111.071 302.599,110.071 301,109.5C 297.442,111.564 293.608,112.564 289.5,112.5C 289.665,115.85 289.498,119.183 289,122.5C 287.115,124.02 284.949,125.02 282.5,125.5C 281.12,131.271 281.453,136.938 283.5,142.5C 286.076,143.282 288.076,144.782 289.5,147C 290.784,147.684 291.951,147.517 293,146.5C 292.159,144.115 290.992,141.781 289.5,139.5C 289.742,136.09 291.575,134.09 295,133.5C 295.333,132.167 295.667,130.833 296,129.5C 297.667,129.833 299.333,130.167 301,130.5C 301.153,133.151 301.987,135.484 303.5,137.5C 305.561,138.751 305.894,140.418 304.5,142.5C 300.83,144.918 296.996,146.918 293,148.5C 292.878,150.282 293.378,151.948 294.5,153.5C 291.939,155.094 288.939,156.094 285.5,156.5C 286.193,157.518 286.859,158.518 287.5,159.5C 284.702,158.047 281.702,157.047 278.5,156.5C 278.5,155.833 278.5,155.167 278.5,154.5C 282.5,154.5 286.5,154.5 290.5,154.5C 290.649,153.448 290.483,152.448 290,151.5C 286.667,148.167 283.333,144.833 280,141.5C 279.501,135.509 279.334,129.509 279.5,123.5C 286.712,123.275 289.379,119.608 287.5,112.5C 292.878,110.384 298.545,109.05 304.5,108.5C 304.5,109.833 304.5,111.167 304.5,112.5 Z"/></g>
<g><path style="opacity:1" fill="#fdf2df" d="M 303.5,137.5 C 303.95,141.224 302.283,143.391 298.5,144C 293.667,144.5 291.5,142.333 292,137.5C 294.158,136.174 295.992,134.507 297.5,132.5C 298.905,134.907 300.905,136.574 303.5,137.5 Z"/></g>
<g><path style="opacity:1" fill="#ebfdfd" d="M 207.5,132.5 C 207.783,133.289 208.283,133.956 209,134.5C 209.82,145.41 209.653,156.243 208.5,167C 197.5,167.667 186.5,167.667 175.5,167C 174.62,165.644 174.286,164.144 174.5,162.5C 174.334,152.494 174.5,142.494 175,132.5C 175.308,131.692 175.808,131.025 176.5,130.5C 185.118,129.363 193.785,129.196 202.5,130C 204.03,131.12 205.697,131.954 207.5,132.5 Z"/></g>
<g><path style="opacity:1" fill="#3aa1c9" d="M 194.5,134.5 C 204.398,132.733 208.065,136.733 205.5,146.5C 201.833,146.5 198.167,146.5 194.5,146.5C 194.5,142.5 194.5,138.5 194.5,134.5 Z"/></g>
<g><path style="opacity:1" fill="#339cc1" d="M 178.5,134.5 C 182.167,134.5 185.833,134.5 189.5,134.5C 189.5,138.5 189.5,142.5 189.5,146.5C 185.833,146.5 182.167,146.5 178.5,146.5C 178.5,142.5 178.5,138.5 178.5,134.5 Z"/></g>
<g><path style="opacity:1" fill="#0db1e3" d="M 246.5,172.5 C 245.5,172.5 244.5,172.5 243.5,172.5C 241.515,169.514 240.348,166.18 240,162.5C 236.53,158.397 232.03,156.397 226.5,156.5C 224.473,153.819 221.807,152.153 218.5,151.5C 216.992,149.493 215.158,147.826 213,146.5C 213.053,143.325 212.22,140.658 210.5,138.5C 210.5,138.167 210.5,137.833 210.5,137.5C 212.499,136.143 213.665,136.81 214,139.5C 214.388,138.572 215.055,137.905 216,137.5C 219.069,140.716 222.402,143.716 226,146.5C 229.017,144.658 230.517,141.991 230.5,138.5C 233.833,138.5 235.5,140.167 235.5,143.5C 233.654,143.222 232.32,143.889 231.5,145.5C 233.724,146.78 235.724,146.447 237.5,144.5C 238.971,145.381 239.804,146.714 240,148.5C 242.988,147.256 245.155,148.256 246.5,151.5C 247.337,158.478 247.337,165.478 246.5,172.5 Z"/></g>
<g><path style="opacity:1" fill="#eaf8dd" d="M 42.5,143.5 C 44.764,144.581 46.9307,145.915 49,147.5C 49.4955,149.473 49.6621,151.473 49.5,153.5C 46.1501,153.335 42.8168,153.502 39.5,154C 41.9373,154.203 44.2707,155.037 46.5,156.5C 48.8301,159.185 48.8301,161.685 46.5,164C 43.6667,164.167 40.8333,164.333 38,164.5C 34.7485,164.481 31.9151,163.814 29.5,162.5C 34.4626,163.496 39.4626,163.663 44.5,163C 46.6576,161.688 46.9909,160.022 45.5,158C 38.9421,156.257 32.9421,153.424 27.5,149.5C 25.8632,147.876 26.1966,146.876 28.5,146.5C 34.3332,149.088 40.3332,151.088 46.5,152.5C 46.6602,150.801 46.4935,149.134 46,147.5C 44.6244,146.295 43.4577,144.962 42.5,143.5 Z"/></g>
<g><path style="opacity:1" fill="#388015" d="M 14.5,138.5 C 14.3573,140.262 14.6906,141.929 15.5,143.5C 17.6499,145.149 19.6499,146.982 21.5,149C 23.4017,150.796 25.4017,150.963 27.5,149.5C 32.9421,153.424 38.9421,156.257 45.5,158C 46.9909,160.022 46.6576,161.688 44.5,163C 39.4626,163.663 34.4626,163.496 29.5,162.5C 28.713,160.896 27.3797,160.229 25.5,160.5C 20.1107,155.402 15.944,149.402 13,142.5C 12.1558,140.537 12.6558,139.204 14.5,138.5 Z"/></g>
<g><path style="opacity:1" fill="#0793bf" d="M 173.5,162.5 C 174.399,167.451 173.065,168.451 169.5,165.5C 168.614,166.325 168.281,167.325 168.5,168.5C 166.856,168.286 165.356,168.62 164,169.5C 160.354,167.527 156.52,165.86 152.5,164.5C 150.541,164.875 148.707,165.541 147,166.5C 145.031,163.152 144.031,159.486 144,155.5C 142.483,153.76 140.983,152.094 139.5,150.5C 141.213,149.365 141.88,147.698 141.5,145.5C 146.105,143.587 150.105,144.421 153.5,148C 152.833,148.333 152.167,148.667 151.5,149C 154.942,150.734 158.442,152.568 162,154.5C 163.15,153.576 164.15,153.576 165,154.5C 165.638,153.391 166.138,152.225 166.5,151C 163.843,148.991 164.177,147.991 167.5,148C 168.448,151.952 170.282,155.452 173,158.5C 173.49,159.793 173.657,161.127 173.5,162.5 Z"/></g>
<g><path style="opacity:1" fill="#e1f4d3" d="M 343.5,142.5 C 340.039,144.415 338.372,147.415 338.5,151.5C 344.814,150.007 350.981,148.007 357,145.5C 358.03,145.836 358.53,146.503 358.5,147.5C 352.114,151.406 345.448,154.739 338.5,157.5C 336.43,162.437 338.097,164.437 343.5,163.5C 348.73,162.978 353.73,161.645 358.5,159.5C 358.047,160.458 357.381,161.292 356.5,162C 349.301,164.6 341.968,165.1 334.5,163.5C 333.331,157.833 335.664,155 341.5,155C 339.866,154.506 338.199,154.34 336.5,154.5C 336.335,151.15 336.502,147.817 337,144.5C 338.897,142.984 341.064,142.317 343.5,142.5 Z"/></g>
<g><path style="opacity:1" fill="#318317" d="M 369.5,145.5 C 367.258,151.334 363.591,156.001 358.5,159.5C 353.73,161.645 348.73,162.978 343.5,163.5C 338.097,164.437 336.43,162.437 338.5,157.5C 345.448,154.739 352.114,151.406 358.5,147.5C 361.413,146.759 364.413,146.259 367.5,146C 368.474,143.335 369.141,143.169 369.5,145.5 Z"/></g>
<g><path style="opacity:1" fill="#cff3f6" d="M 127.5,158.5 C 127.325,160.621 127.659,162.621 128.5,164.5C 128.81,167.713 128.477,170.713 127.5,173.5C 127.5,170.5 127.5,167.5 127.5,164.5C 116.129,164.768 104.795,164.434 93.5,163.5C 103.341,162.833 113.341,162.167 123.5,161.5C 112.79,160.097 102.123,160.264 91.5,162C 90.3555,168.752 90.1888,175.586 91,182.5C 92.48,187.804 93.6467,187.804 94.5,182.5C 94.5,185.833 94.5,189.167 94.5,192.5C 93.1667,192.5 91.8333,192.5 90.5,192.5C 90.5,195.833 90.5,199.167 90.5,202.5C 89.548,188.336 88.8814,174.003 88.5,159.5C 101.492,158.917 114.492,158.584 127.5,158.5 Z"/></g>
<g><path style="opacity:1" fill="#e1b27d" d="M 278.5,154.5 C 278.5,155.167 278.5,155.833 278.5,156.5C 275.15,156.335 271.817,156.502 268.5,157C 266.907,157.949 265.574,159.115 264.5,160.5C 261.588,162.066 258.921,164.066 256.5,166.5C 255.205,162.62 255.205,158.786 256.5,155C 263.826,154.5 271.159,154.334 278.5,154.5 Z"/></g>
<g><path style="opacity:1" fill="#e58426" d="M 256.5,156.5 C 265.304,155.658 266.304,157.491 259.5,162C 258.552,162.483 257.552,162.649 256.5,162.5C 256.5,160.5 256.5,158.5 256.5,156.5 Z"/></g>
<g><path style="opacity:1" fill="#074f69" d="M 148.5,176.5 C 153.143,183.772 157.81,191.105 162.5,198.5C 162.827,203.544 162.494,208.544 161.5,213.5C 153.487,207.489 144.82,202.489 135.5,198.5C 134.702,198.043 134.369,197.376 134.5,196.5C 134.333,182.496 134.5,168.496 135,154.5C 135.333,154.167 135.667,153.833 136,153.5C 140.16,161.153 144.327,168.82 148.5,176.5 Z"/></g>
<g><path style="opacity:1" fill="#1f8baf" d="M 207.5,132.5 C 210.084,133.048 211.084,134.715 210.5,137.5C 210.5,137.833 210.5,138.167 210.5,138.5C 210.334,146.84 210.5,155.173 211,163.5C 212.88,165.764 212.38,167.43 209.5,168.5C 208.167,170.5 206.833,172.5 205.5,174.5C 203.149,172.93 200.482,172.097 197.5,172C 198.337,170.989 198.67,169.822 198.5,168.5C 191.021,167.982 183.688,168.648 176.5,170.5C 173.041,169.875 170.041,171.041 167.5,174C 170.137,174.455 172.637,173.955 175,172.5C 175.833,172.833 176.667,173.167 177.5,173.5C 173.436,176.434 169.102,176.934 164.5,175C 163.874,174.25 163.374,173.416 163,172.5C 162.015,175.585 159.848,177.085 156.5,177C 155.232,181.196 153.732,181.029 152,176.5C 150.855,177.684 149.688,177.684 148.5,176.5C 144.327,168.82 140.16,161.153 136,153.5C 135.667,153.833 135.333,154.167 135,154.5C 134.5,168.496 134.333,182.496 134.5,196.5C 133.339,181.672 133.172,166.672 134,151.5C 135.045,150.627 135.878,149.627 136.5,148.5C 136.833,148.5 137.167,148.5 137.5,148.5C 138.167,149.167 138.833,149.833 139.5,150.5C 140.983,152.094 142.483,153.76 144,155.5C 144.031,159.486 145.031,163.152 147,166.5C 148.707,165.541 150.541,164.875 152.5,164.5C 156.52,165.86 160.354,167.527 164,169.5C 165.356,168.62 166.856,168.286 168.5,168.5C 168.281,167.325 168.614,166.325 169.5,165.5C 173.065,168.451 174.399,167.451 173.5,162.5C 173.833,162.5 174.167,162.5 174.5,162.5C 174.286,164.144 174.62,165.644 175.5,167C 186.5,167.667 197.5,167.667 208.5,167C 209.653,156.243 209.82,145.41 209,134.5C 208.283,133.956 207.783,133.289 207.5,132.5 Z"/></g>
<g><path style="opacity:1" fill="#2583aa" d="M 179.5,152.5 C 182.833,152.5 186.167,152.5 189.5,152.5C 189.5,156.167 189.5,159.833 189.5,163.5C 186.167,163.5 182.833,163.5 179.5,163.5C 179.5,159.833 179.5,156.167 179.5,152.5 Z"/></g>
<g><path style="opacity:1" fill="#2d8aab" d="M 194.5,152.5 C 198.167,152.5 201.833,152.5 205.5,152.5C 205.665,155.85 205.498,159.183 205,162.5C 201.606,163.456 198.106,163.789 194.5,163.5C 194.5,159.833 194.5,156.167 194.5,152.5 Z"/></g>
<g><path style="opacity:1" fill="#18808f" d="M 78.5,138.5 C 78.7329,140.062 79.3995,141.395 80.5,142.5C 80.5,145.167 80.5,147.833 80.5,150.5C 81.552,150.649 82.552,150.483 83.5,150C 82.6198,148.644 82.2865,147.144 82.5,145.5C 87.0834,147.319 90.0834,146.319 91.5,142.5C 92.646,143.145 93.646,143.978 94.5,145C 93.6634,146.011 93.33,147.178 93.5,148.5C 90.6994,149.766 87.6994,150.599 84.5,151C 86.2495,152.319 88.2495,152.819 90.5,152.5C 90.5,153.5 90.5,154.5 90.5,155.5C 102.833,155.5 115.167,155.5 127.5,155.5C 127.5,156.5 127.5,157.5 127.5,158.5C 114.492,158.584 101.492,158.917 88.5,159.5C 88.8814,174.003 89.548,188.336 90.5,202.5C 91.587,206.573 94.2536,208.239 98.5,207.5C 98.8275,212.544 98.4941,217.544 97.5,222.5C 78.4801,197.428 70.1467,169.095 72.5,137.5C 72.6287,135.784 72.962,134.117 73.5,132.5C 75.2338,130.91 76.4005,128.91 77,126.5C 78,127.167 79,127.833 80,128.5C 78.9781,131.642 78.4781,134.975 78.5,138.5 Z"/></g>
<g><path style="opacity:1" fill="#089fcb" d="M 210.5,138.5 C 212.22,140.658 213.053,143.325 213,146.5C 215.158,147.826 216.992,149.493 218.5,151.5C 221.807,152.153 224.473,153.819 226.5,156.5C 232.03,156.397 236.53,158.397 240,162.5C 240.348,166.18 241.515,169.514 243.5,172.5C 242.713,174.104 241.38,174.771 239.5,174.5C 239.649,175.552 239.483,176.552 239,177.5C 236.693,179.482 234.193,181.149 231.5,182.5C 228.599,181.767 226.933,179.933 226.5,177C 230.398,175.147 230.398,173.313 226.5,171.5C 224.405,173.589 222.572,173.589 221,171.5C 220.586,171.957 220.086,172.291 219.5,172.5C 215.33,171.391 211.996,170.058 209.5,168.5C 212.38,167.43 212.88,165.764 211,163.5C 210.5,155.173 210.334,146.84 210.5,138.5 Z"/></g>
<g><path style="opacity:1" fill="#13202c" d="M 282.5,163.5 C 293.268,171.993 294.268,181.66 285.5,192.5C 283.391,193.391 281.391,194.558 279.5,196C 266.978,196.989 259.978,191.156 258.5,178.5C 261.093,164.869 269.093,159.869 282.5,163.5 Z"/></g>
<g><path style="opacity:1" fill="#eff2f0" d="M 271.5,167.5 C 282.321,167.488 286.821,172.822 285,183.5C 277.666,193.03 270.666,192.697 264,182.5C 263.279,175.942 265.779,170.942 271.5,167.5 Z"/></g>
<g><path style="opacity:1" fill="#d9dedf" d="M 54.5,141.5 C 53.8815,161.181 56.8815,180.181 63.5,198.5C 62.1751,199.953 61.3418,199.619 61,197.5C 58.2497,191.242 55.9163,184.908 54,178.5C 52.4443,179.52 51.2776,180.853 50.5,182.5C 55.0491,191.513 57.7157,200.846 58.5,210.5C 54.5014,202.687 51.1681,194.52 48.5,186C 35.8012,185.776 23.1346,185.276 10.5,184.5C 10.2865,182.856 10.6198,181.356 11.5,180C 14.8168,179.502 18.1501,179.335 21.5,179.5C 30.5,179.5 39.5,179.5 48.5,179.5C 48.7373,178.209 48.404,177.209 47.5,176.5C 46.5318,174.393 46.1984,172.059 46.5,169.5C 40.9738,169.821 35.6405,169.488 30.5,168.5C 36.7576,168.81 42.9242,168.476 49,167.5C 49.8372,165.156 51.1706,163.156 53,161.5C 53.1717,154.654 53.6717,147.987 54.5,141.5 Z"/></g>
<g><path style="opacity:1" fill="#0d8eb6" d="M 209.5,168.5 C 211.996,170.058 215.33,171.391 219.5,172.5C 220.086,172.291 220.586,171.957 221,171.5C 222.572,173.589 224.405,173.589 226.5,171.5C 230.398,173.313 230.398,175.147 226.5,177C 226.933,179.933 228.599,181.767 231.5,182.5C 234.193,181.149 236.693,179.482 239,177.5C 239.483,176.552 239.649,175.552 239.5,174.5C 241.38,174.771 242.713,174.104 243.5,172.5C 244.5,172.5 245.5,172.5 246.5,172.5C 248.465,179.76 249.132,187.427 248.5,195.5C 247.167,195.5 245.833,195.5 244.5,195.5C 244.875,198.907 243.875,199.407 241.5,197C 242.059,196.275 242.392,195.442 242.5,194.5C 240.745,190.738 239.745,186.738 239.5,182.5C 237.856,182.714 236.356,182.38 235,181.5C 233.859,183.609 232.359,185.442 230.5,187C 225.705,187.864 222.371,190.364 220.5,194.5C 216.141,183.16 207.807,177.16 195.5,176.5C 198.833,175.833 202.167,175.167 205.5,174.5C 206.833,172.5 208.167,170.5 209.5,168.5 Z"/></g>
<g><path style="opacity:1" fill="#1d2f3b" d="M 328.5,138.5 C 329.63,151.552 328.963,164.552 326.5,177.5C 322.647,193.539 316.314,208.539 307.5,222.5C 307.579,221.07 307.246,219.736 306.5,218.5C 307.616,218.598 308.616,218.098 309.5,217C 308.257,214.116 308.424,211.282 310,208.5C 312.324,207.193 313.657,205.193 314,202.5C 314.718,203.451 315.551,203.617 316.5,203C 317.079,201.575 317.079,199.908 316.5,198C 319.162,193.196 321.162,188.029 322.5,182.5C 321.883,180.364 320.549,179.53 318.5,180C 317.393,184.656 315.06,188.489 311.5,191.5C 314.01,183.283 316.01,174.95 317.5,166.5C 318.268,165.737 318.768,164.737 319,163.5C 319.654,164.696 320.154,164.696 320.5,163.5C 319.865,159.552 319.532,155.552 319.5,151.5C 321.428,142.582 322.094,133.582 321.5,124.5C 322.242,126.35 323.242,127.016 324.5,126.5C 324.167,127.167 323.833,127.833 323.5,128.5C 325.197,129.364 326.363,130.697 327,132.5C 327.191,134.708 327.691,136.708 328.5,138.5 Z"/></g>
<g><path style="opacity:0.027" fill="#51676c" d="M 47.5,176.5 C 48.404,177.209 48.7373,178.209 48.5,179.5C 39.5,179.5 30.5,179.5 21.5,179.5C 30.3813,179.155 39.048,178.155 47.5,176.5 Z"/></g>
<g><path style="opacity:1" fill="#107aa0" d="M 205.5,174.5 C 202.167,175.167 198.833,175.833 195.5,176.5C 194.671,183.989 194.171,191.656 194,199.5C 191.224,201.14 189.224,200.473 188,197.5C 187.5,190.842 187.334,184.175 187.5,177.5C 173.981,178.354 165.648,185.354 162.5,198.5C 157.81,191.105 153.143,183.772 148.5,176.5C 149.688,177.684 150.855,177.684 152,176.5C 153.732,181.029 155.232,181.196 156.5,177C 159.848,177.085 162.015,175.585 163,172.5C 163.374,173.416 163.874,174.25 164.5,175C 169.102,176.934 173.436,176.434 177.5,173.5C 176.667,173.167 175.833,172.833 175,172.5C 172.637,173.955 170.137,174.455 167.5,174C 170.041,171.041 173.041,169.875 176.5,170.5C 183.688,168.648 191.021,167.982 198.5,168.5C 198.67,169.822 198.337,170.989 197.5,172C 200.482,172.097 203.149,172.93 205.5,174.5 Z"/></g>
<g><path style="opacity:1" fill="#2d2719" d="M 271.5,174.5 C 277.158,173.679 278.825,175.846 276.5,181C 274.888,181.72 273.388,181.554 272,180.5C 271.505,178.527 271.338,176.527 271.5,174.5 Z"/></g>
<g><path style="opacity:0.998" fill="#ebf2f3" d="M 336.5,169.5 C 336.5,172.5 336.5,175.5 336.5,178.5C 348.505,178.333 360.505,178.5 372.5,179C 373.959,182.084 372.959,184.084 369.5,185C 357.838,185.5 346.171,185.667 334.5,185.5C 327.477,214.221 312.81,238.221 290.5,257.5C 285.658,255.83 282.325,257.33 280.5,262C 281.167,262.333 281.833,262.667 282.5,263C 280.782,263.346 279.115,263.846 277.5,264.5C 275.212,262.99 272.545,262.324 269.5,262.5C 283.877,252.457 295.877,240.124 305.5,225.5C 306.401,224.71 307.068,223.71 307.5,222.5C 316.314,208.539 322.647,193.539 326.5,177.5C 326.34,179.199 326.506,180.866 327,182.5C 327.333,181.5 327.667,180.5 328,179.5C 329.764,181.661 331.597,181.828 333.5,180C 333.829,176.108 334.829,172.608 336.5,169.5 Z"/></g>
<g><path style="opacity:1" fill="#243945" d="M 120.5,194.5 C 119.833,194.167 119.167,193.833 118.5,193.5C 120,191.821 121.833,190.488 124,189.5C 124.667,187.833 124.667,186.167 124,184.5C 120.128,183.745 116.295,184.245 112.5,186C 108.673,187.746 105.007,189.746 101.5,192C 99.1902,192.497 96.8568,192.663 94.5,192.5C 94.5,189.167 94.5,185.833 94.5,182.5C 104.949,182.677 115.283,182.177 125.5,181C 129.423,187.731 127.756,192.231 120.5,194.5 Z"/></g>
<g><path style="opacity:1" fill="#ebf5f3" d="M 136.5,148.5 C 135.878,149.627 135.045,150.627 134,151.5C 133.172,166.672 133.339,181.672 134.5,196.5C 134.369,197.376 134.702,198.043 135.5,198.5C 144.82,202.489 153.487,207.489 161.5,213.5C 162.494,208.544 162.827,203.544 162.5,198.5C 165.648,185.354 173.981,178.354 187.5,177.5C 187.334,184.175 187.5,190.842 188,197.5C 189.224,200.473 191.224,201.14 194,199.5C 194.171,191.656 194.671,183.989 195.5,176.5C 207.807,177.16 216.141,183.16 220.5,194.5C 220.266,201.701 220.266,208.701 220.5,215.5C 220.44,216.043 220.107,216.376 219.5,216.5C 218.584,212.708 218.584,208.874 219.5,205C 219.435,202.409 218.935,199.909 218,197.5C 217.667,201.5 217.333,205.5 217,209.5C 216.148,210.571 215.315,211.571 214.5,212.5C 217.601,201.303 214.601,192.137 205.5,185C 203.975,183.991 202.308,183.491 200.5,183.5C 200.804,189.577 200.304,195.577 199,201.5C 193.738,208.013 188.738,208.013 184,201.5C 182.978,195.731 182.145,190.064 181.5,184.5C 169.919,190.689 165.752,200.355 169,213.5C 170.921,218.339 173.088,223.006 175.5,227.5C 176.512,231.704 178.012,235.704 180,239.5C 180.335,250.984 180.335,262.318 180,273.5C 179.439,274.022 178.772,274.355 178,274.5C 174.096,272.3 169.93,270.8 165.5,270C 164.748,269.329 164.414,268.496 164.5,267.5C 167.846,269.324 171.513,269.99 175.5,269.5C 175.756,267.208 175.423,265.041 174.5,263C 175.744,262.544 176.577,263.044 177,264.5C 177.333,264.167 177.667,263.833 178,263.5C 178.849,252.859 177.516,242.525 174,232.5C 172.265,229.638 170.098,227.304 167.5,225.5C 158.663,218.531 149.33,212.031 139.5,206C 137.564,205.187 135.564,204.687 133.5,204.5C 133.5,210.5 133.5,216.5 133.5,222.5C 133.334,229.841 133.5,237.174 134,244.5C 134.232,245.737 134.732,246.737 135.5,247.5C 135.02,250.685 135.686,253.519 137.5,256C 145.789,259.812 154.122,263.312 162.5,266.5C 162.5,266.833 162.5,267.167 162.5,267.5C 161.624,267.369 160.957,267.702 160.5,268.5C 161.172,270.16 162.172,271.493 163.5,272.5C 146.338,268.79 131.005,261.457 117.5,250.5C 116.463,248.262 116.297,245.929 117,243.5C 117.914,244.654 118.747,244.487 119.5,243C 118.748,242.329 118.414,241.496 118.5,240.5C 117.6,226.509 117.434,212.509 118,198.5C 118.662,197.016 119.496,195.683 120.5,194.5C 127.756,192.231 129.423,187.731 125.5,181C 115.283,182.177 104.949,182.677 94.5,182.5C 93.6467,187.804 92.48,187.804 91,182.5C 90.1888,175.586 90.3555,168.752 91.5,162C 102.123,160.264 112.79,160.097 123.5,161.5C 113.341,162.167 103.341,162.833 93.5,163.5C 93.1818,168.032 93.5151,172.366 94.5,176.5C 105.014,176.828 115.347,176.494 125.5,175.5C 126.833,175.5 127.5,174.833 127.5,173.5C 128.477,170.713 128.81,167.713 128.5,164.5C 129.5,164.5 130.5,164.5 131.5,164.5C 131.334,159.821 131.501,155.155 132,150.5C 133.11,148.963 134.61,148.297 136.5,148.5 Z"/></g>
<g><path style="opacity:1" fill="#082233" d="M 125.5,175.5 C 115.347,176.494 105.014,176.828 94.5,176.5C 99.2876,175.172 104.454,174.505 110,174.5C 115.344,174.501 120.511,174.834 125.5,175.5 Z"/></g>
<g><path style="opacity:1" fill="#2793be" d="M 93.5,163.5 C 104.795,164.434 116.129,164.768 127.5,164.5C 127.5,167.5 127.5,170.5 127.5,173.5C 127.5,174.833 126.833,175.5 125.5,175.5C 120.511,174.834 115.344,174.501 110,174.5C 104.454,174.505 99.2876,175.172 94.5,176.5C 93.5151,172.366 93.1818,168.032 93.5,163.5 Z"/></g>
<g><path style="opacity:1" fill="#e36a18" d="M 305.5,116.5 C 307.172,119.198 308.339,122.198 309,125.5C 312.586,145.358 311.753,165.025 306.5,184.5C 302.677,197.111 296.844,208.778 289,219.5C 287.524,214.924 287.19,210.257 288,205.5C 293.584,201.874 295.084,197.207 292.5,191.5C 296.792,184.379 297.625,176.713 295,168.5C 292.665,165.335 290.165,162.335 287.5,159.5C 286.859,158.518 286.193,157.518 285.5,156.5C 288.939,156.094 291.939,155.094 294.5,153.5C 299.254,154.611 300.754,157.611 299,162.5C 296.214,159.655 294.88,159.989 295,163.5C 296.644,166.951 298.811,167.284 301.5,164.5C 302.386,169.383 303.886,174.05 306,178.5C 307.135,173.409 307.968,168.242 308.5,163C 308.37,161.941 307.87,161.108 307,160.5C 306.581,161.672 305.915,162.672 305,163.5C 305.215,159.11 303.715,155.61 300.5,153C 302.986,149.559 304.986,149.892 306.5,154C 307.448,154.483 308.448,154.649 309.5,154.5C 309.83,147.8 309.497,141.134 308.5,134.5C 307.737,128.36 306.737,122.36 305.5,116.5 Z"/></g>
<g><path style="opacity:1" fill="#162534" d="M 66.5,126.5 C 63.5424,142.613 63.8757,158.613 67.5,174.5C 71.0242,191.869 78.0242,207.536 88.5,221.5C 88.8333,222.167 89.1667,222.833 89.5,223.5C 87.5429,224.09 85.3763,224.09 83,223.5C 81.5197,225.337 81.5197,227.337 83,229.5C 87.3246,232.992 91.158,236.992 94.5,241.5C 94.1373,242.183 93.8039,242.85 93.5,243.5C 80.7592,230.359 70.7592,215.359 63.5,198.5C 56.8815,180.181 53.8815,161.181 54.5,141.5C 54.2786,138.721 54.612,136.054 55.5,133.5C 56.8873,131.123 57.7206,128.457 58,125.5C 58.3333,126.5 58.6667,127.5 59,128.5C 59.3333,125.833 59.6667,123.167 60,120.5C 61.0992,117.961 62.7658,117.295 65,118.5C 65.2724,121.254 65.7724,123.921 66.5,126.5 Z"/></g>
<g><path style="opacity:1" fill="#162937" d="M 307.5,222.5 C 307.068,223.71 306.401,224.71 305.5,225.5C 305.44,224.957 305.107,224.624 304.5,224.5C 300.989,227.688 298.156,231.354 296,235.5C 294.829,234.107 293.329,233.273 291.5,233C 291.833,232.667 292.167,232.333 292.5,232C 291.244,231.583 290.577,230.75 290.5,229.5C 299.374,217.885 306.374,205.218 311.5,191.5C 315.06,188.489 317.393,184.656 318.5,180C 320.549,179.53 321.883,180.364 322.5,182.5C 321.162,188.029 319.162,193.196 316.5,198C 317.079,199.908 317.079,201.575 316.5,203C 315.551,203.617 314.718,203.451 314,202.5C 313.657,205.193 312.324,207.193 310,208.5C 308.424,211.282 308.257,214.116 309.5,217C 308.616,218.098 307.616,218.598 306.5,218.5C 307.246,219.736 307.579,221.07 307.5,222.5 Z"/></g>
<g><path style="opacity:1" fill="#117aa0" d="M 248.5,195.5 C 248.5,195.833 248.5,196.167 248.5,196.5C 240.36,201.772 232.026,206.939 223.5,212C 222.29,213.039 221.29,214.206 220.5,215.5C 220.266,208.701 220.266,201.701 220.5,194.5C 222.371,190.364 225.705,187.864 230.5,187C 232.359,185.442 233.859,183.609 235,181.5C 236.356,182.38 237.856,182.714 239.5,182.5C 239.745,186.738 240.745,190.738 242.5,194.5C 242.392,195.442 242.059,196.275 241.5,197C 243.875,199.407 244.875,198.907 244.5,195.5C 245.833,195.5 247.167,195.5 248.5,195.5 Z"/></g>
<g><path style="opacity:0.945" fill="#e3ebed" d="M 345.5,193.5 C 354.16,192.687 356.827,196.187 353.5,204C 347.489,207.183 343.823,205.516 342.5,199C 342.613,196.601 343.613,194.768 345.5,193.5 Z"/></g>
<g><path style="opacity:1" fill="#e0e4e7" d="M 34.5,192.5 C 39.6759,193.843 41.5092,197.176 40,202.5C 34.3678,207.031 29.8678,206.031 26.5,199.5C 28.0107,195.644 30.6774,193.311 34.5,192.5 Z"/></g>
<g><path style="opacity:1" fill="#101e2f" d="M 214.5,212.5 C 214.5,212.833 214.5,213.167 214.5,213.5C 211.264,218.969 208.264,224.636 205.5,230.5C 203.192,234.047 202.025,238.047 202,242.5C 201.5,251.494 201.334,260.494 201.5,269.5C 200.167,269.5 198.833,269.5 197.5,269.5C 197.5,259.5 197.5,249.5 197.5,239.5C 199.756,229.322 203.922,219.988 210,211.5C 212.807,204.288 211.474,197.955 206,192.5C 206.924,201.674 203.09,207.674 194.5,210.5C 192.104,208.049 189.104,207.049 185.5,207.5C 182.48,205.477 180.146,202.81 178.5,199.5C 179.75,199.423 180.583,198.756 181,197.5C 181.499,193.179 181.666,188.846 181.5,184.5C 182.145,190.064 182.978,195.731 184,201.5C 188.738,208.013 193.738,208.013 199,201.5C 200.304,195.577 200.804,189.577 200.5,183.5C 202.308,183.491 203.975,183.991 205.5,185C 214.601,192.137 217.601,201.303 214.5,212.5 Z"/></g>
<g><path style="opacity:1" fill="#e4ebed" d="M 178.5,199.5 C 180.146,202.81 182.48,205.477 185.5,207.5C 181.693,209.451 177.693,210.784 173.5,211.5C 172.32,204.09 173.82,197.423 178,191.5C 178.497,194.146 178.664,196.813 178.5,199.5 Z"/></g>
<g><path style="opacity:1" fill="#122130" d="M 287.5,196.5 C 288.097,196.735 288.43,197.235 288.5,198C 285.984,200.349 283.651,202.849 281.5,205.5C 276.737,205.774 272.07,205.441 267.5,204.5C 263.849,202.53 261.849,199.53 261.5,195.5C 265.776,198.072 270.443,199.739 275.5,200.5C 279.732,199.71 283.732,198.377 287.5,196.5 Z"/></g>
<g><path style="opacity:1" fill="#eff4f5" d="M 197.5,239.5 C 196.833,244.167 196.167,248.833 195.5,253.5C 193.616,249.983 191.283,249.649 188.5,252.5C 187.833,249.5 187.167,246.5 186.5,243.5C 186.11,240.161 185.61,236.827 185,233.5C 182.167,228.5 179.333,223.5 176.5,218.5C 182.017,214.878 188.017,212.211 194.5,210.5C 203.09,207.674 206.924,201.674 206,192.5C 211.474,197.955 212.807,204.288 210,211.5C 203.922,219.988 199.756,229.322 197.5,239.5 Z"/></g>
<g><path style="opacity:1" fill="#2e7789" d="M 124.5,197.5 C 125.5,197.5 126.5,197.5 127.5,197.5C 127.833,214.846 127.5,232.179 126.5,249.5C 125.833,249.167 125.167,248.833 124.5,248.5C 123.183,231.436 123.183,214.436 124.5,197.5 Z"/></g>
<g><path style="opacity:1" fill="#e8f0f1" d="M 118.5,193.5 C 114.481,197.18 109.814,199.847 104.5,201.5C 104.105,196.987 101.771,195.487 97.5,197C 95.3424,198.312 95.0091,199.978 96.5,202C 98.7429,201.681 100.91,201.848 103,202.5C 103.333,212.167 103.667,221.833 104,231.5C 105.833,234.333 107.333,234.167 108.5,231C 112.181,229.686 114.514,230.853 115.5,234.5C 111.363,237.977 111.696,240.643 116.5,242.5C 117.182,241.757 117.849,241.091 118.5,240.5C 118.414,241.496 118.748,242.329 119.5,243C 118.747,244.487 117.914,244.654 117,243.5C 116.297,245.929 116.463,248.262 117.5,250.5C 106.866,242.867 97.533,233.867 89.5,223.5C 89.1667,222.833 88.8333,222.167 88.5,221.5C 90.4109,221.574 91.5776,222.574 92,224.5C 94.7716,224.421 97.4383,224.087 100,223.5C 99.7279,220.268 99.8946,216.934 100.5,213.5C 100.333,211.833 100.167,210.167 100,208.5C 99.6174,207.944 99.1174,207.611 98.5,207.5C 94.2536,208.239 91.587,206.573 90.5,202.5C 90.5,199.167 90.5,195.833 90.5,192.5C 91.8333,192.5 93.1667,192.5 94.5,192.5C 96.8568,192.663 99.1902,192.497 101.5,192C 105.007,189.746 108.673,187.746 112.5,186C 116.295,184.245 120.128,183.745 124,184.5C 124.667,186.167 124.667,187.833 124,189.5C 121.833,190.488 120,191.821 118.5,193.5 Z"/></g>
<g><path style="opacity:1" fill="#384654" d="M 110.5,188.5 C 114.252,189.306 115.252,191.472 113.5,195C 110.007,197.447 107.674,196.613 106.5,192.5C 108.188,191.479 109.521,190.145 110.5,188.5 Z"/></g>
<g><path style="opacity:1" fill="#eaf8f9" d="M 72.5,137.5 C 70.1467,169.095 78.4801,197.428 97.5,222.5C 98.4941,217.544 98.8275,212.544 98.5,207.5C 99.1174,207.611 99.6174,207.944 100,208.5C 100.167,210.167 100.333,211.833 100.5,213.5C 99.8946,216.934 99.7279,220.268 100,223.5C 97.4383,224.087 94.7716,224.421 92,224.5C 91.5776,222.574 90.4109,221.574 88.5,221.5C 78.0242,207.536 71.0242,191.869 67.5,174.5C 68.7498,174.577 69.5831,175.244 70,176.5C 70.3333,175.833 70.6667,175.167 71,174.5C 71.1985,167.34 71.0319,160.173 70.5,153C 70.3258,147.579 70.9925,142.413 72.5,137.5 Z"/></g>
<g><path style="opacity:1" fill="#f5f4ee" d="M 315.5,125.5 C 318.611,138.905 319.277,152.572 317.5,166.5C 316.01,174.95 314.01,183.283 311.5,191.5C 306.374,205.218 299.374,217.885 290.5,229.5C 288.5,231.167 286.5,232.833 284.5,234.5C 284.047,233.542 283.381,232.708 282.5,232C 284.047,228.902 284.714,225.569 284.5,222C 284.497,219.31 284.164,216.81 283.5,214.5C 283.802,211.941 283.468,209.607 282.5,207.5C 282.167,206.833 281.833,206.167 281.5,205.5C 283.651,202.849 285.984,200.349 288.5,198C 288.43,197.235 288.097,196.735 287.5,196.5C 286.194,195.533 285.527,194.199 285.5,192.5C 294.268,181.66 293.268,171.993 282.5,163.5C 283.496,163.586 284.329,163.252 285,162.5C 285.333,163.167 285.667,163.833 286,164.5C 286.49,163.207 286.657,161.873 286.5,160.5C 282.763,160.255 279.097,159.589 275.5,158.5C 273.754,158.971 272.087,159.638 270.5,160.5C 268.482,159.183 266.482,159.183 264.5,160.5C 265.574,159.115 266.907,157.949 268.5,157C 271.817,156.502 275.15,156.335 278.5,156.5C 281.702,157.047 284.702,158.047 287.5,159.5C 290.165,162.335 292.665,165.335 295,168.5C 297.625,176.713 296.792,184.379 292.5,191.5C 295.084,197.207 293.584,201.874 288,205.5C 287.19,210.257 287.524,214.924 289,219.5C 296.844,208.778 302.677,197.111 306.5,184.5C 307.496,184.586 308.329,184.252 309,183.5C 309.29,181.956 309.956,180.623 311,179.5C 311.143,175.381 311.81,171.381 313,167.5C 313.203,161.201 314.036,155.035 315.5,149C 314.022,145.16 314.355,141.494 316.5,138C 315.596,133.889 315.263,129.722 315.5,125.5 Z"/></g>
<g><path style="opacity:1" fill="#1a3443" d="M 280.5,207.5 C 281.167,207.5 281.833,207.5 282.5,207.5C 283.468,209.607 283.802,211.941 283.5,214.5C 283.826,218.884 283.492,223.217 282.5,227.5C 281.818,228.243 281.151,228.909 280.5,229.5C 279.778,229.082 279.278,228.416 279,227.5C 278.333,221.5 278.333,215.5 279,209.5C 279.278,208.584 279.778,207.918 280.5,207.5 Z"/></g>
<g><path style="opacity:1" fill="#f0fae9" d="M 220.5,215.5 C 222.379,216.341 224.379,216.675 226.5,216.5C 226.105,213.477 227.105,212.477 229.5,213.5C 230.23,212.066 231.23,210.9 232.5,210C 235.168,209.433 237.834,208.933 240.5,208.5C 233.389,212.56 226.389,216.894 219.5,221.5C 216.471,224.226 214.471,227.559 213.5,231.5C 211.024,234.288 210.024,237.622 210.5,241.5C 209.778,241.918 209.278,242.584 209,243.5C 208.501,248.823 208.334,254.156 208.5,259.5C 207.307,259.03 206.64,258.03 206.5,256.5C 205.989,253.354 205.655,250.187 205.5,247C 206.888,241.914 207.888,236.748 208.5,231.5C 211.695,231.487 213.362,229.82 213.5,226.5C 213.182,225.353 212.516,224.519 211.5,224C 213.18,223.653 214.18,222.653 214.5,221C 214.101,218.663 214.101,216.163 214.5,213.5C 214.5,213.167 214.5,212.833 214.5,212.5C 215.315,211.571 216.148,210.571 217,209.5C 217.333,205.5 217.667,201.5 218,197.5C 218.935,199.909 219.435,202.409 219.5,205C 218.584,208.874 218.584,212.708 219.5,216.5C 220.107,216.376 220.44,216.043 220.5,215.5 Z"/></g>
<g><path style="opacity:1" fill="#0e1a2c" d="M 181.5,184.5 C 181.666,188.846 181.499,193.179 181,197.5C 180.583,198.756 179.75,199.423 178.5,199.5C 178.664,196.813 178.497,194.146 178,191.5C 173.82,197.423 172.32,204.09 173.5,211.5C 177.693,210.784 181.693,209.451 185.5,207.5C 189.104,207.049 192.104,208.049 194.5,210.5C 188.017,212.211 182.017,214.878 176.5,218.5C 179.333,223.5 182.167,228.5 185,233.5C 185.61,236.827 186.11,240.161 186.5,243.5C 186.5,252.167 186.5,260.833 186.5,269.5C 185.167,269.5 183.833,269.5 182.5,269.5C 182.827,259.985 182.494,250.652 181.5,241.5C 180.838,236.158 178.838,231.492 175.5,227.5C 173.088,223.006 170.921,218.339 169,213.5C 165.752,200.355 169.919,190.689 181.5,184.5 Z"/></g>
<g><path style="opacity:1" fill="#1a202f" d="M 193.5,215.5 C 194.833,215.5 196.167,215.5 197.5,215.5C 197.85,218.722 198.517,221.888 199.5,225C 199.167,225.833 198.833,226.667 198.5,227.5C 194.986,229.117 191.319,230.117 187.5,230.5C 186.516,227.188 185.516,223.855 184.5,220.5C 187.286,218.394 190.286,216.727 193.5,215.5 Z"/></g>
<g><path style="opacity:1" fill="#8a95a4" d="M 190.5,219.5 C 192.585,221.684 193.585,224.351 193.5,227.5C 189.109,227.038 187.442,224.705 188.5,220.5C 190.005,223.131 190.671,222.797 190.5,219.5 Z"/></g>
<g><path style="opacity:1" fill="#c9d0dd" d="M 193.5,219.5 C 196.306,220.707 196.972,222.707 195.5,225.5C 194.523,223.589 193.857,221.589 193.5,219.5 Z"/></g>
<g><path style="opacity:1" fill="#0f1f2e" d="M 118.5,193.5 C 119.167,193.833 119.833,194.167 120.5,194.5C 119.496,195.683 118.662,197.016 118,198.5C 117.434,212.509 117.6,226.509 118.5,240.5C 117.849,241.091 117.182,241.757 116.5,242.5C 111.696,240.643 111.363,237.977 115.5,234.5C 114.514,230.853 112.181,229.686 108.5,231C 107.333,234.167 105.833,234.333 104,231.5C 103.667,221.833 103.333,212.167 103,202.5C 100.91,201.848 98.7429,201.681 96.5,202C 95.0091,199.978 95.3424,198.312 97.5,197C 101.771,195.487 104.105,196.987 104.5,201.5C 109.814,199.847 114.481,197.18 118.5,193.5 Z"/></g>
<g><path style="opacity:1" fill="#d0dee7" d="M 108.5,206.5 C 109.833,206.5 111.167,206.5 112.5,206.5C 112.5,207.5 112.5,208.5 112.5,209.5C 111.167,209.5 109.833,209.5 108.5,209.5C 108.5,208.5 108.5,207.5 108.5,206.5 Z"/></g>
<g><path style="opacity:1" fill="#88be15" d="M 167.5,225.5 C 168.11,226.391 168.443,227.391 168.5,228.5C 168.851,230.869 169.018,233.203 169,235.5C 165.413,234.592 161.247,234.592 156.5,235.5C 145.569,222.682 143.569,223.682 150.5,238.5C 150.5,239.833 150.5,241.167 150.5,242.5C 146.894,242.789 143.394,242.456 140,241.5C 138.036,236.683 136.702,231.683 136,226.5C 135.392,224.934 134.558,223.6 133.5,222.5C 133.5,216.5 133.5,210.5 133.5,204.5C 135.564,204.687 137.564,205.187 139.5,206C 149.33,212.031 158.663,218.531 167.5,225.5 Z"/></g>
<g><path style="opacity:1" fill="#d37422" d="M 259.5,203.5 C 260.167,203.833 260.833,204.167 261.5,204.5C 261.136,218.832 260.803,233.166 260.5,247.5C 259.205,248.488 257.872,249.488 256.5,250.5C 256.5,234.833 256.5,219.167 256.5,203.5C 257.5,203.5 258.5,203.5 259.5,203.5 Z"/></g>
<g><path style="opacity:1" fill="#88bf22" d="M 249.5,240.5 C 248.85,238.565 248.517,236.565 248.5,234.5C 245.189,235.073 242.189,235.74 239.5,236.5C 237.294,234.773 236.961,232.773 238.5,230.5C 238.5,228.5 238.5,226.5 238.5,224.5C 239.222,224.082 239.722,223.416 240,222.5C 240.333,224.167 240.667,225.833 241,227.5C 241.483,226.552 241.649,225.552 241.5,224.5C 243.484,224.383 245.15,225.05 246.5,226.5C 247.086,226.291 247.586,225.957 248,225.5C 248.5,219.175 248.666,212.842 248.5,206.5C 244.437,209.377 240.104,212.043 235.5,214.5C 235.12,216.021 234.954,217.687 235,219.5C 234.282,218.549 233.449,218.383 232.5,219C 232.619,220.281 232.119,221.448 231,222.5C 230.137,220.251 230.637,218.418 232.5,217C 231.216,216.316 230.049,216.483 229,217.5C 226.578,221.805 227.578,225.139 232,227.5C 233.077,226.571 234.244,225.904 235.5,225.5C 232.5,229.5 229.5,233.5 226.5,237.5C 225.833,237.833 225.167,238.167 224.5,238.5C 222.983,238.489 221.816,237.823 221,236.5C 219.542,237.747 218.042,237.747 216.5,236.5C 215.999,234.345 214.999,232.678 213.5,231.5C 214.471,227.559 216.471,224.226 219.5,221.5C 226.389,216.894 233.389,212.56 240.5,208.5C 242.487,207.836 244.154,206.669 245.5,205C 247.134,204.506 248.801,204.34 250.5,204.5C 250.828,216.678 250.495,228.678 249.5,240.5 Z"/></g>
<g><path style="opacity:1" fill="#90ca09" d="M 238.5,224.5 C 237.391,224.557 236.391,224.89 235.5,225.5C 234.244,225.904 233.077,226.571 232,227.5C 227.578,225.139 226.578,221.805 229,217.5C 230.049,216.483 231.216,216.316 232.5,217C 230.637,218.418 230.137,220.251 231,222.5C 232.119,221.448 232.619,220.281 232.5,219C 233.449,218.383 234.282,218.549 235,219.5C 234.954,217.687 235.12,216.021 235.5,214.5C 240.104,212.043 244.437,209.377 248.5,206.5C 248.666,212.842 248.5,219.175 248,225.5C 247.586,225.957 247.086,226.291 246.5,226.5C 245.15,225.05 243.484,224.383 241.5,224.5C 241.649,225.552 241.483,226.552 241,227.5C 240.667,225.833 240.333,224.167 240,222.5C 239.722,223.416 239.222,224.082 238.5,224.5 Z"/></g>
<g><path style="opacity:1" fill="#0d5b87" d="M 267.5,204.5 C 272.07,205.441 276.737,205.774 281.5,205.5C 281.833,206.167 282.167,206.833 282.5,207.5C 281.833,207.5 281.167,207.5 280.5,207.5C 276.981,206.192 273.315,206.192 269.5,207.5C 269.808,208.308 270.308,208.975 271,209.5C 271.5,219.161 271.666,228.828 271.5,238.5C 271.5,239.167 271.167,239.5 270.5,239.5C 270.54,230.472 270.04,221.472 269,212.5C 268.878,210.563 268.045,209.23 266.5,208.5C 267.234,207.292 267.567,205.959 267.5,204.5 Z"/></g>
<g><path style="opacity:1" fill="#2fa5cb" d="M 280.5,207.5 C 279.778,207.918 279.278,208.584 279,209.5C 278.333,215.5 278.333,221.5 279,227.5C 279.278,228.416 279.778,229.082 280.5,229.5C 277.833,232.833 274.833,235.833 271.5,238.5C 271.666,228.828 271.5,219.161 271,209.5C 270.308,208.975 269.808,208.308 269.5,207.5C 273.315,206.192 276.981,206.192 280.5,207.5 Z"/></g>
<g><path style="opacity:1" fill="#152c44" d="M 266.5,208.5 C 268.045,209.23 268.878,210.563 269,212.5C 270.04,221.472 270.54,230.472 270.5,239.5C 269.109,241.89 267.109,243.557 264.5,244.5C 264.333,233.495 264.5,222.495 265,211.5C 265.232,210.263 265.732,209.263 266.5,208.5 Z"/></g>
<g><path style="opacity:1" fill="#e3e5e4" d="M 63.5,198.5 C 70.7592,215.359 80.7592,230.359 93.5,243.5C 116.528,267.348 144.528,281.682 177.5,286.5C 172.804,287.259 168.138,287.592 163.5,287.5C 165.677,289.758 168.343,291.258 171.5,292C 170.833,292.333 170.167,292.667 169.5,293C 178.359,294.298 187.193,294.132 196,292.5C 200.518,294.407 205.352,295.074 210.5,294.5C 148.763,299.881 100.596,276.881 66,225.5C 62.9617,220.757 60.4617,215.757 58.5,210.5C 57.7157,200.846 55.0491,191.513 50.5,182.5C 51.2776,180.853 52.4443,179.52 54,178.5C 55.9163,184.908 58.2497,191.242 61,197.5C 61.3418,199.619 62.1751,199.953 63.5,198.5 Z"/></g>
<g><path style="opacity:1" fill="#172632" d="M 305.5,225.5 C 295.877,240.124 283.877,252.457 269.5,262.5C 261.846,267.329 253.846,271.663 245.5,275.5C 244.047,274.175 244.381,273.342 246.5,273C 242.903,270.825 243.569,269.658 248.5,269.5C 248.5,268.5 248.5,267.5 248.5,266.5C 243.841,266.554 239.674,267.887 236,270.5C 234.989,269.663 233.822,269.33 232.5,269.5C 252.914,262.302 270.247,250.635 284.5,234.5C 286.5,232.833 288.5,231.167 290.5,229.5C 290.577,230.75 291.244,231.583 292.5,232C 292.167,232.333 291.833,232.667 291.5,233C 293.329,233.273 294.829,234.107 296,235.5C 298.156,231.354 300.989,227.688 304.5,224.5C 305.107,224.624 305.44,224.957 305.5,225.5 Z"/></g>
<g><path style="opacity:1" fill="#e3f7d8" d="M 251.5,202.5 C 251.251,217.525 251.584,232.525 252.5,247.5C 251.042,250.214 250.042,253.214 249.5,256.5C 244.749,260.041 239.415,262.207 233.5,263C 230.998,265.212 227.998,266.045 224.5,265.5C 232.248,262.628 239.915,259.295 247.5,255.5C 248.576,251.225 249.243,246.892 249.5,242.5C 249.5,241.833 249.5,241.167 249.5,240.5C 250.495,228.678 250.828,216.678 250.5,204.5C 248.801,204.34 247.134,204.506 245.5,205C 244.154,206.669 242.487,207.836 240.5,208.5C 243.033,204.071 246.7,202.071 251.5,202.5 Z"/></g>
<g><path style="opacity:1" fill="#f7dab1" d="M 261.5,204.5 C 262.661,218.327 262.827,232.327 262,246.5C 261.617,247.056 261.117,247.389 260.5,247.5C 260.803,233.166 261.136,218.832 261.5,204.5 Z"/></g>
<g><path style="opacity:1" fill="#e5b88b" d="M 259.5,203.5 C 258.5,203.5 257.5,203.5 256.5,203.5C 256.5,219.167 256.5,234.833 256.5,250.5C 255.662,250.158 255.328,249.492 255.5,248.5C 255.333,233.163 255.5,217.83 256,202.5C 257.313,201.713 258.48,202.046 259.5,203.5 Z"/></g>
<g><path style="opacity:1" fill="#2a7f0d" d="M 133.5,222.5 C 134.558,223.6 135.392,224.934 136,226.5C 136.702,231.683 138.036,236.683 140,241.5C 143.394,242.456 146.894,242.789 150.5,242.5C 150.5,241.167 150.5,239.833 150.5,238.5C 152.326,240.147 153.66,242.147 154.5,244.5C 155.882,247.526 157.215,250.526 158.5,253.5C 155.107,253.062 152.107,253.895 149.5,256C 149.957,256.414 150.291,256.914 150.5,257.5C 149.277,258.614 147.944,258.781 146.5,258C 144.103,256.282 141.436,255.115 138.5,254.5C 137.942,251.873 136.942,249.54 135.5,247.5C 134.732,246.737 134.232,245.737 134,244.5C 133.5,237.174 133.334,229.841 133.5,222.5 Z"/></g>
<g><path style="opacity:1" fill="#f2f8f6" d="M 214.5,213.5 C 214.101,216.163 214.101,218.663 214.5,221C 214.18,222.653 213.18,223.653 211.5,224C 212.516,224.519 213.182,225.353 213.5,226.5C 213.362,229.82 211.695,231.487 208.5,231.5C 207.888,236.748 206.888,241.914 205.5,247C 205.655,250.187 205.989,253.354 206.5,256.5C 206.64,258.03 207.307,259.03 208.5,259.5C 209.077,260.773 209.743,260.773 210.5,259.5C 213.526,254.816 216.526,250.149 219.5,245.5C 221.547,243.45 223.214,241.117 224.5,238.5C 225.167,238.167 225.833,237.833 226.5,237.5C 227.82,236.058 229.486,235.392 231.5,235.5C 231.392,237.783 230.559,239.783 229,241.5C 228.667,241.167 228.333,240.833 228,240.5C 224.562,247.205 220.729,253.705 216.5,260C 215.852,261.44 215.519,262.94 215.5,264.5C 214.438,265.575 214.438,266.575 215.5,267.5C 218.399,266.358 221.399,265.692 224.5,265.5C 227.998,266.045 230.998,265.212 233.5,263C 239.415,262.207 244.749,260.041 249.5,256.5C 250.042,253.214 251.042,250.214 252.5,247.5C 253.391,248.11 254.391,248.443 255.5,248.5C 255.328,249.492 255.662,250.158 256.5,250.5C 256.369,251.376 256.702,252.043 257.5,252.5C 262.025,251.648 264.358,248.981 264.5,244.5C 267.109,243.557 269.109,241.89 270.5,239.5C 271.167,239.5 271.5,239.167 271.5,238.5C 274.833,235.833 277.833,232.833 280.5,229.5C 281.151,228.909 281.818,228.243 282.5,227.5C 283.492,223.217 283.826,218.884 283.5,214.5C 284.164,216.81 284.497,219.31 284.5,222C 284.714,225.569 284.047,228.902 282.5,232C 283.381,232.708 284.047,233.542 284.5,234.5C 270.247,250.635 252.914,262.302 232.5,269.5C 228.499,270.5 224.499,271.5 220.5,272.5C 218.064,272.683 215.897,272.016 214,270.5C 212.981,271.687 211.814,272.687 210.5,273.5C 209.808,272.975 209.308,272.308 209,271.5C 207,272.167 205,272.833 203,273.5C 202.833,273.167 202.667,272.833 202.5,272.5C 203.694,270.377 204.36,268.043 204.5,265.5C 204.003,262.521 204.003,259.688 204.5,257C 202.579,255.297 202.579,253.297 204.5,251C 204.737,247.417 204.404,244.084 203.5,241C 204.54,237.6 205.206,234.1 205.5,230.5C 208.264,224.636 211.264,218.969 214.5,213.5 Z"/></g>
<g><path style="opacity:1" fill="#177010" d="M 249.5,242.5 C 249.243,246.892 248.576,251.225 247.5,255.5C 239.915,259.295 232.248,262.628 224.5,265.5C 221.399,265.692 218.399,266.358 215.5,267.5C 214.438,266.575 214.438,265.575 215.5,264.5C 219.343,258.147 223.677,252.147 228.5,246.5C 228.5,247.833 228.5,249.167 228.5,250.5C 236.463,250.103 243.463,247.437 249.5,242.5 Z"/></g>
<g><path style="opacity:1" fill="#2b7d1a" d="M 210.5,241.5 C 210.5,242.5 210.5,243.5 210.5,244.5C 211.822,244.33 212.989,244.663 214,245.5C 214.308,244.692 214.808,244.025 215.5,243.5C 217.026,243.994 218.359,244.661 219.5,245.5C 216.526,250.149 213.526,254.816 210.5,259.5C 209.743,260.773 209.077,260.773 208.5,259.5C 208.334,254.156 208.501,248.823 209,243.5C 209.278,242.584 209.778,241.918 210.5,241.5 Z"/></g>
<g><path style="opacity:1" fill="#539f15" d="M 213.5,231.5 C 214.999,232.678 215.999,234.345 216.5,236.5C 218.042,237.747 219.542,237.747 221,236.5C 221.816,237.823 222.983,238.489 224.5,238.5C 223.214,241.117 221.547,243.45 219.5,245.5C 218.359,244.661 217.026,243.994 215.5,243.5C 214.808,244.025 214.308,244.692 214,245.5C 212.989,244.663 211.822,244.33 210.5,244.5C 210.5,243.5 210.5,242.5 210.5,241.5C 210.024,237.622 211.024,234.288 213.5,231.5 Z"/></g>
<g><path style="opacity:1" fill="#e7f9d5" d="M 238.5,224.5 C 238.5,226.5 238.5,228.5 238.5,230.5C 234.259,235.15 230.926,240.483 228.5,246.5C 223.677,252.147 219.343,258.147 215.5,264.5C 215.519,262.94 215.852,261.44 216.5,260C 220.729,253.705 224.562,247.205 228,240.5C 228.333,240.833 228.667,241.167 229,241.5C 230.559,239.783 231.392,237.783 231.5,235.5C 229.486,235.392 227.82,236.058 226.5,237.5C 229.5,233.5 232.5,229.5 235.5,225.5C 236.391,224.89 237.391,224.557 238.5,224.5 Z"/></g>
<g><path style="opacity:1" fill="#5ea711" d="M 238.5,230.5 C 236.961,232.773 237.294,234.773 239.5,236.5C 242.189,235.74 245.189,235.073 248.5,234.5C 248.517,236.565 248.85,238.565 249.5,240.5C 249.5,241.167 249.5,241.833 249.5,242.5C 243.463,247.437 236.463,250.103 228.5,250.5C 228.5,249.167 228.5,247.833 228.5,246.5C 230.926,240.483 234.259,235.15 238.5,230.5 Z"/></g>
<g><path style="opacity:1" fill="#1f6b1d" d="M 154.5,244.5 C 160.303,251.816 165.97,259.316 171.5,267C 168.553,266.848 165.553,266.681 162.5,266.5C 154.122,263.312 145.789,259.812 137.5,256C 135.686,253.519 135.02,250.685 135.5,247.5C 136.942,249.54 137.942,251.873 138.5,254.5C 141.436,255.115 144.103,256.282 146.5,258C 147.944,258.781 149.277,258.614 150.5,257.5C 150.291,256.914 149.957,256.414 149.5,256C 152.107,253.895 155.107,253.062 158.5,253.5C 157.215,250.526 155.882,247.526 154.5,244.5 Z"/></g>
<g><path style="opacity:1" fill="#152433" d="M 89.5,223.5 C 97.533,233.867 106.866,242.867 117.5,250.5C 131.005,261.457 146.338,268.79 163.5,272.5C 179.631,276.99 195.965,277.656 212.5,274.5C 212.389,275.117 212.056,275.617 211.5,276C 206.729,277.786 202.063,278.953 197.5,279.5C 188.772,276.059 180.438,277.226 172.5,283C 183.691,285.291 195.025,286.124 206.5,285.5C 206.5,285.833 206.5,286.167 206.5,286.5C 196.833,286.5 187.167,286.5 177.5,286.5C 144.528,281.682 116.528,267.348 93.5,243.5C 93.8039,242.85 94.1373,242.183 94.5,241.5C 91.158,236.992 87.3246,232.992 83,229.5C 81.5197,227.337 81.5197,225.337 83,223.5C 85.3763,224.09 87.5429,224.09 89.5,223.5 Z"/></g>
<g><path style="opacity:1" fill="#eaf8e4" d="M 167.5,225.5 C 170.098,227.304 172.265,229.638 174,232.5C 177.516,242.525 178.849,252.859 178,263.5C 177.667,263.833 177.333,264.167 177,264.5C 176.577,263.044 175.744,262.544 174.5,263C 175.423,265.041 175.756,267.208 175.5,269.5C 171.513,269.99 167.846,269.324 164.5,267.5C 163.833,267.5 163.167,267.5 162.5,267.5C 162.5,267.167 162.5,266.833 162.5,266.5C 165.553,266.681 168.553,266.848 171.5,267C 165.97,259.316 160.303,251.816 154.5,244.5C 153.66,242.147 152.326,240.147 150.5,238.5C 143.569,223.682 145.569,222.682 156.5,235.5C 158.115,238.45 160.115,241.116 162.5,243.5C 165.69,250.026 170.024,255.692 175.5,260.5C 175.818,255.248 175.818,249.914 175.5,244.5C 174.239,240.547 173.072,236.547 172,232.5C 171.051,230.907 169.885,229.574 168.5,228.5C 168.443,227.391 168.11,226.391 167.5,225.5 Z"/></g>
<g><path style="opacity:1" fill="#2f7b24" d="M 162.5,243.5 C 165.468,243.626 167.468,245.126 168.5,248C 170.167,248.833 171.833,249.667 173.5,250.5C 174.169,248.369 174.835,246.369 175.5,244.5C 175.818,249.914 175.818,255.248 175.5,260.5C 170.024,255.692 165.69,250.026 162.5,243.5 Z"/></g>
<g><path style="opacity:1" fill="#599d1b" d="M 168.5,228.5 C 169.885,229.574 171.051,230.907 172,232.5C 173.072,236.547 174.239,240.547 175.5,244.5C 174.835,246.369 174.169,248.369 173.5,250.5C 171.833,249.667 170.167,248.833 168.5,248C 167.468,245.126 165.468,243.626 162.5,243.5C 160.115,241.116 158.115,238.45 156.5,235.5C 161.247,234.592 165.413,234.592 169,235.5C 169.018,233.203 168.851,230.869 168.5,228.5 Z"/></g>
<g><path style="opacity:1" fill="#eef4f6" d="M 175.5,227.5 C 178.838,231.492 180.838,236.158 181.5,241.5C 181.5,251.167 181.5,260.833 181.5,270.5C 183.415,270.784 185.081,270.451 186.5,269.5C 187.483,265.702 187.817,261.702 187.5,257.5C 190.5,257.5 193.5,257.5 196.5,257.5C 196.5,261.833 196.5,266.167 196.5,270.5C 198.415,270.784 200.081,270.451 201.5,269.5C 201.334,260.494 201.5,251.494 202,242.5C 202.025,238.047 203.192,234.047 205.5,230.5C 205.206,234.1 204.54,237.6 203.5,241C 204.404,244.084 204.737,247.417 204.5,251C 202.579,253.297 202.579,255.297 204.5,257C 204.003,259.688 204.003,262.521 204.5,265.5C 204.36,268.043 203.694,270.377 202.5,272.5C 202.667,272.833 202.833,273.167 203,273.5C 205,272.833 207,272.167 209,271.5C 209.308,272.308 209.808,272.975 210.5,273.5C 211.814,272.687 212.981,271.687 214,270.5C 215.897,272.016 218.064,272.683 220.5,272.5C 217.997,273.371 215.33,274.037 212.5,274.5C 195.965,277.656 179.631,276.99 163.5,272.5C 162.172,271.493 161.172,270.16 160.5,268.5C 160.957,267.702 161.624,267.369 162.5,267.5C 163.167,267.5 163.833,267.5 164.5,267.5C 164.414,268.496 164.748,269.329 165.5,270C 169.93,270.8 174.096,272.3 178,274.5C 178.772,274.355 179.439,274.022 180,273.5C 180.335,262.318 180.335,250.984 180,239.5C 178.012,235.704 176.512,231.704 175.5,227.5 Z"/></g>
<g><path style="opacity:1" fill="#76848d" d="M 181.5,241.5 C 182.494,250.652 182.827,259.985 182.5,269.5C 183.833,269.5 185.167,269.5 186.5,269.5C 185.081,270.451 183.415,270.784 181.5,270.5C 181.5,260.833 181.5,251.167 181.5,241.5 Z"/></g>
<g><path style="opacity:1" fill="#8c97a1" d="M 197.5,239.5 C 197.5,249.5 197.5,259.5 197.5,269.5C 198.833,269.5 200.167,269.5 201.5,269.5C 200.081,270.451 198.415,270.784 196.5,270.5C 196.5,266.167 196.5,261.833 196.5,257.5C 193.5,257.5 190.5,257.5 187.5,257.5C 187.817,261.702 187.483,265.702 186.5,269.5C 186.5,260.833 186.5,252.167 186.5,243.5C 187.167,246.5 187.833,249.5 188.5,252.5C 187.766,253.708 187.433,255.041 187.5,256.5C 190.167,256.5 192.833,256.5 195.5,256.5C 195.5,255.5 195.5,254.5 195.5,253.5C 196.167,248.833 196.833,244.167 197.5,239.5 Z"/></g>
<g><path style="opacity:1" fill="#101828" d="M 195.5,253.5 C 195.5,254.5 195.5,255.5 195.5,256.5C 192.833,256.5 190.167,256.5 187.5,256.5C 187.433,255.041 187.766,253.708 188.5,252.5C 191.283,249.649 193.616,249.983 195.5,253.5 Z"/></g>
<g><path style="opacity:1" fill="#10202e" d="M 245.5,275.5 C 232.95,280.554 219.95,283.888 206.5,285.5C 195.025,286.124 183.691,285.291 172.5,283C 180.438,277.226 188.772,276.059 197.5,279.5C 202.063,278.953 206.729,277.786 211.5,276C 212.056,275.617 212.389,275.117 212.5,274.5C 215.33,274.037 217.997,273.371 220.5,272.5C 224.499,271.5 228.499,270.5 232.5,269.5C 233.822,269.33 234.989,269.663 236,270.5C 239.674,267.887 243.841,266.554 248.5,266.5C 248.5,267.5 248.5,268.5 248.5,269.5C 243.569,269.658 242.903,270.825 246.5,273C 244.381,273.342 244.047,274.175 245.5,275.5 Z"/></g>
<g><path style="opacity:1" fill="#e1e4e5" d="M 290.5,257.5 C 272.406,274.552 251.072,285.885 226.5,291.5C 227.429,290.685 228.429,289.852 229.5,289C 228.584,288.626 227.75,288.126 227,287.5C 226.035,289.26 224.868,289.594 223.5,288.5C 224.263,287.281 225.263,286.281 226.5,285.5C 221.147,283.867 216.147,284.534 211.5,287.5C 209.929,286.691 208.262,286.357 206.5,286.5C 206.5,286.167 206.5,285.833 206.5,285.5C 219.95,283.888 232.95,280.554 245.5,275.5C 253.846,271.663 261.846,267.329 269.5,262.5C 272.545,262.324 275.212,262.99 277.5,264.5C 279.115,263.846 280.782,263.346 282.5,263C 281.833,262.667 281.167,262.333 280.5,262C 282.325,257.33 285.658,255.83 290.5,257.5 Z"/></g>
<g><path style="opacity:1" fill="#ebeceb" d="M 226.5,291.5 C 221.449,293.344 216.116,294.344 210.5,294.5C 205.352,295.074 200.518,294.407 196,292.5C 187.193,294.132 178.359,294.298 169.5,293C 170.167,292.667 170.833,292.333 171.5,292C 168.343,291.258 165.677,289.758 163.5,287.5C 168.138,287.592 172.804,287.259 177.5,286.5C 187.167,286.5 196.833,286.5 206.5,286.5C 208.262,286.357 209.929,286.691 211.5,287.5C 216.147,284.534 221.147,283.867 226.5,285.5C 225.263,286.281 224.263,287.281 223.5,288.5C 224.868,289.594 226.035,289.26 227,287.5C 227.75,288.126 228.584,288.626 229.5,289C 228.429,289.852 227.429,290.685 226.5,291.5 Z"/></g>
</svg>
